<svg width="181" height="33" viewBox="0 0 181 33" fill="none" xmlns="http://www.w3.org/2000/svg">
<g clip-path="url(#clip0)">
<path d="M24.6213 9.20822C23.7057 9.599 22.7301 9.85802 21.7129 9.98379C22.7593 9.37591 23.558 8.42067 23.9335 7.26929C22.9578 7.83525 21.8807 8.23501 20.7327 8.4581C19.8063 7.49837 18.486 6.90396 17.0457 6.90396C14.2511 6.90396 12.0014 9.1109 12.0014 11.8164C12.0014 12.2057 12.0352 12.58 12.1183 12.9364C7.92191 12.7372 4.20871 10.7803 1.71426 7.79931C1.27877 8.53446 1.02332 9.37591 1.02332 10.2817C1.02332 11.9826 1.92354 13.4903 3.2654 14.3632C2.45444 14.3483 1.65886 14.1192 0.984853 13.7583C0.984853 13.7733 0.984853 13.7928 0.984853 13.8122C0.984853 16.1988 2.73451 18.1812 5.02891 18.6378C4.61804 18.7471 4.17024 18.7996 3.70551 18.7996C3.38235 18.7996 3.05612 18.7816 2.74989 18.7157C3.4039 20.6606 5.25973 22.0905 7.46642 22.1369C5.74908 23.444 3.56855 24.2315 1.20798 24.2315C0.794038 24.2315 0.397019 24.2136 0 24.1642C2.23592 25.5671 4.88579 26.3681 7.74341 26.3681C17.0318 26.3681 22.1099 18.8819 22.1099 12.3929C22.1099 12.1758 22.1023 11.9661 22.0915 11.758C23.0933 11.0663 23.935 10.2024 24.6213 9.20822Z" fill="white"/>
</g>
<g clip-path="url(#clip1)">
<path fill-rule="evenodd" clip-rule="evenodd" d="M77.3981 18.8098C78.4576 19.8658 79.5759 20.8593 80.5262 22.0218C80.946 22.5384 81.3434 23.0715 81.6474 23.671C82.0782 24.5232 81.688 25.461 80.9394 25.5119L76.2862 25.5098C75.086 25.6115 74.1286 25.1182 73.3236 24.2806C72.6793 23.6107 72.0827 22.8977 71.4632 22.2052C71.2092 21.9222 70.9434 21.6558 70.6258 21.4453C69.9906 21.0244 69.4392 21.1533 69.0762 21.8296C68.7065 22.5175 68.6226 23.2792 68.5863 24.0458C68.5365 25.1644 68.2053 25.4585 67.1046 25.5097C64.7524 25.6229 62.52 25.2596 60.4461 24.0483C58.6178 22.9804 57.2 21.4728 55.9659 19.7661C53.5632 16.4428 51.7232 12.791 50.0695 9.03688C49.6972 8.19107 49.9694 7.73705 50.8836 7.72098C52.4017 7.69088 53.9195 7.69302 55.4393 7.71884C56.0563 7.72805 56.4647 8.0893 56.7029 8.68431C57.5243 10.7458 58.5292 12.7072 59.7906 14.5252C60.1266 15.0093 60.4691 15.4933 60.9569 15.834C61.4965 16.2112 61.9074 16.0862 62.1613 15.4725C62.3224 15.0834 62.3929 14.6643 62.4292 14.2476C62.5495 12.8138 62.5653 11.3825 62.3544 9.95382C62.2249 9.06216 61.7329 8.48494 60.8613 8.3162C60.4165 8.23018 60.4828 8.06123 60.6981 7.80208C61.0721 7.35513 61.4239 7.0769 62.1252 7.0769H67.3841C68.212 7.24371 68.3959 7.62338 68.5092 8.4738L68.5137 14.4371C68.5047 14.7663 68.6748 15.7432 69.2557 15.9611C69.7206 16.1163 70.027 15.7366 70.306 15.4356C71.5651 14.0714 72.4637 12.4592 73.2666 10.7898C73.6229 10.0557 73.9292 9.29335 74.2261 8.53165C74.4461 7.96642 74.7912 7.68831 75.4149 7.70063L80.4763 7.70523C80.6264 7.70523 80.7783 7.70748 80.9236 7.73287C81.7765 7.88125 82.0102 8.25578 81.7468 9.10598C81.3317 10.4399 80.5242 11.5515 79.7346 12.6682C78.8905 13.8605 77.9878 15.0119 77.1507 16.2113C76.3817 17.3065 76.4428 17.8585 77.3981 18.8098Z" fill="white"/>
</g>
<g clip-path="url(#clip2)">
<g clip-path="url(#clip3)">
<path d="M125.685 3.87185L122.492 3.86673C118.904 3.86673 116.586 6.24552 116.586 9.92733V12.7217H113.375C113.097 12.7217 112.873 12.9466 112.873 13.2241V17.2728C112.873 17.5502 113.097 17.7749 113.375 17.7749H116.586V27.991C116.586 28.2685 116.81 28.4932 117.088 28.4932H121.277C121.555 28.4932 121.779 28.2682 121.779 27.991V17.7749H125.534C125.811 17.7749 126.036 17.5502 126.036 17.2728L126.037 13.2241C126.037 13.0908 125.984 12.9633 125.89 12.869C125.796 12.7747 125.668 12.7217 125.535 12.7217H121.779V10.3529C121.779 9.21433 122.051 8.63635 123.534 8.63635L125.685 8.63558C125.962 8.63558 126.187 8.41064 126.187 8.13344V4.374C126.187 4.09705 125.962 3.87237 125.685 3.87185Z" fill="white"/>
</g>
</g>
<g clip-path="url(#clip4)">
<path d="M174.389 4.65808H163.655C160.01 4.65808 157.044 7.62382 157.044 11.269V22.0029C157.044 25.6482 160.01 28.6138 163.655 28.6138H174.389C178.034 28.6138 181 25.6481 181 22.0029V11.269C181 7.62382 178.034 4.65808 174.389 4.65808ZM178.875 22.0029C178.875 24.4762 176.862 26.4883 174.389 26.4883H163.655C161.182 26.4885 159.17 24.4762 159.17 22.0029V11.269C159.17 8.7958 161.182 6.78355 163.655 6.78355H174.389C176.862 6.78355 178.874 8.7958 178.874 11.269V22.0029H178.875Z" fill="white"/>
<path d="M169.022 10.4634C165.618 10.4634 162.849 13.2325 162.849 16.6362C162.849 20.0398 165.618 22.8087 169.022 22.8087C172.426 22.8087 175.195 20.0398 175.195 16.6362C175.195 13.2325 172.426 10.4634 169.022 10.4634ZM169.022 20.6831C166.79 20.6831 164.975 18.8677 164.975 16.6361C164.975 14.4043 166.79 12.5888 169.022 12.5888C171.254 12.5888 173.069 14.4043 173.069 16.6361C173.069 18.8677 171.254 20.6831 169.022 20.6831Z" fill="white"/>
<path d="M175.454 8.66119C175.044 8.66119 174.642 8.82698 174.353 9.11746C174.062 9.40653 173.895 9.80895 173.895 10.2199C173.895 10.6295 174.062 11.0318 174.353 11.3223C174.642 11.6113 175.044 11.7785 175.454 11.7785C175.865 11.7785 176.266 11.6113 176.556 11.3223C176.847 11.0318 177.012 10.6294 177.012 10.2199C177.012 9.80895 176.847 9.40653 176.556 9.11746C176.267 8.82698 175.865 8.66119 175.454 8.66119Z" fill="white"/>
</g>
<defs>
<clipPath id="clip0">
<rect width="24.6213" height="23.9559" fill="white" transform="translate(0 4.65808)"/>
</clipPath>
<clipPath id="clip1">
<rect width="31.9412" height="32.6066" fill="white" transform="translate(49.9081)"/>
</clipPath>
<clipPath id="clip2">
<rect width="24.6213" height="24.6213" fill="white" transform="translate(107.136 3.99271)"/>
</clipPath>
<clipPath id="clip3">
<rect width="24.6267" height="24.6267" fill="white" transform="translate(107.216 3.86661)"/>
</clipPath>
<clipPath id="clip4">
<rect width="23.9559" height="23.9559" fill="white" transform="translate(157.044 4.65808)"/>
</clipPath>
</defs>
</svg>
