<svg width="175" height="63" viewBox="0 0 175 63" fill="none" xmlns="http://www.w3.org/2000/svg">
<path d="M0 57.6481V55.0579C0 53.2581 1.00429 52.2526 2.51969 52.2526C4.07993 52.2526 5.07013 53.2569 5.11496 55.0579H4.21827C4.17216 53.7385 3.57778 53.1224 2.52225 53.1224C1.5154 53.1185 0.896687 53.7334 0.896687 55.0579V57.6532C0.896687 58.9739 1.51156 59.5887 2.51713 59.5887C3.56753 59.5887 4.18241 58.9739 4.22724 57.6532H5.12393C5.07909 59.4542 4.0748 60.4585 2.51329 60.4585C1.00429 60.4534 0 59.4491 0 57.6481Z" fill="white"/>
<path d="M13.1108 52.3384V53.2978C12.7933 53.1845 12.4578 53.1298 12.1206 53.1364C10.9959 53.1364 10.2606 54.0331 10.2606 55.537V60.3099H9.37549V52.428H10.1108L10.2606 53.4182V53.4336C10.4603 53.0679 10.7577 52.7648 11.1196 52.5583C11.4816 52.3518 11.8938 52.2499 12.3102 52.2641C12.5791 52.2556 12.8481 52.2805 13.1108 52.3384Z" fill="white"/>
<path d="M22.0816 57.8889C21.9612 59.5388 20.9863 60.4508 19.3364 60.4508C17.8069 60.4508 16.8014 59.4466 16.8014 57.6455V55.0579C16.8014 53.2581 17.8261 52.2526 19.3505 52.2526C20.9261 52.2526 21.9765 53.2569 21.9765 55.0579V56.7988H17.7006V57.6532C17.7006 58.9739 18.3309 59.5887 19.3659 59.5887C20.506 59.5887 21.076 59.0495 21.1964 57.894L22.0816 57.8889ZM17.7006 55.0579V55.9738H21.0914V55.0579C21.0914 53.7385 20.4509 53.1224 19.3659 53.1224C18.3309 53.1185 17.7006 53.7334 17.7006 55.0579Z" fill="white"/>
<path d="M31.247 54.8594V60.31H30.4784L30.4041 59.5747C30.2031 59.8678 29.9314 60.1054 29.6141 60.2655C29.2968 60.4257 28.9442 60.5031 28.589 60.4906C27.1491 60.4906 26.0987 59.6054 26.0987 58.0746C26.0987 56.5439 27.0736 55.7202 28.799 55.7202H30.3593V54.8799C30.3593 53.727 29.8187 53.1096 28.799 53.1096C27.9024 53.1096 27.2836 53.622 27.2234 54.4892H26.3383C26.3985 53.139 27.3733 52.2539 28.8285 52.2539C30.3324 52.2487 31.247 53.253 31.247 54.8594ZM30.3593 58.0836V56.5388H28.7721C27.6193 56.5388 27.0018 57.0793 27.0018 58.0836C27.0018 59.1186 27.7064 59.6131 28.726 59.6131C29.7457 59.6131 30.3593 58.9841 30.3593 58.0836Z" fill="white"/>
<path d="M39.1673 59.5414V60.3817H38.7177C37.2778 60.3817 36.4824 59.485 36.4824 57.967V53.253H35.2821V52.4281H36.4824V50.6129H37.3675V52.4281H38.988V53.253H37.3675V57.9632C37.3675 58.9982 37.7877 59.5388 38.7177 59.5388L39.1673 59.5414Z" fill="white"/>
<path d="M42.9475 50.2529C42.9475 50.1105 42.9897 49.9714 43.0688 49.853C43.1479 49.7346 43.2604 49.6423 43.3919 49.5878C43.5234 49.5333 43.6682 49.5191 43.8078 49.5469C43.9475 49.5746 44.0758 49.6432 44.1765 49.7439C44.2771 49.8446 44.3457 49.9728 44.3735 50.1125C44.4013 50.2521 44.387 50.3969 44.3325 50.5284C44.278 50.66 44.1857 50.7724 44.0674 50.8515C43.949 50.9306 43.8098 50.9728 43.6674 50.9728C43.5712 50.9793 43.4747 50.965 43.3845 50.9311C43.2942 50.8972 43.2123 50.8444 43.1441 50.7762C43.0759 50.7081 43.0231 50.6261 42.9892 50.5359C42.9553 50.4456 42.9411 50.3491 42.9475 50.2529ZM43.2319 52.4306H44.117V60.3099H43.2331L43.2319 52.4306Z" fill="white"/>
<path d="M53.4336 52.428L51.1983 60.3099H50.2388L48.0035 52.4344H48.9335L50.1786 57.0459C50.3439 57.6864 50.5834 58.7266 50.691 59.1608H50.7512C50.8563 58.7266 51.0958 57.6915 51.2636 57.0459L52.5087 52.4344L53.4336 52.428Z" fill="white"/>
<path d="M62.4043 57.8889C62.2839 59.5388 61.3091 60.4508 59.6592 60.4508C58.1297 60.4508 57.1241 59.4466 57.1241 57.6455V55.0579C57.1241 53.2581 58.1489 52.2526 59.6733 52.2526C61.2489 52.2526 62.2993 53.2569 62.2993 55.0579V56.7988H58.0285V57.6532C58.0285 58.9739 58.6587 59.5887 59.6937 59.5887C60.8338 59.5887 61.4039 59.0495 61.5243 57.894L62.4043 57.8889ZM58.0285 55.0579V55.9738H61.4192V55.0579C61.4192 53.7385 60.7787 53.1224 59.6937 53.1224C58.6536 53.1185 58.0285 53.7334 58.0285 55.0579Z" fill="white"/>
<path d="M81.0656 52.428L79.1147 60.3099H78.1399L77.1804 56.3952C76.9563 55.4985 76.7013 54.2354 76.6399 53.7256H76.6104C76.5502 54.238 76.2953 55.4959 76.0698 56.3952L75.1104 60.3099H74.1355L72.1859 52.4344H73.1159L74.0907 56.7231C74.2854 57.5327 74.5109 58.7624 74.6031 59.198H74.6338C74.7235 58.7035 74.9784 57.3674 75.2039 56.4221L76.1492 52.5791H77.1087L78.0541 56.4221C78.2782 57.3674 78.5331 58.7022 78.6241 59.198H78.6523C78.7419 58.7624 78.9674 57.5327 79.1647 56.7231L80.1395 52.4331L81.0656 52.428Z" fill="white"/>
<path d="M84.7549 57.634V55.0989C84.7549 53.2543 85.804 52.2487 87.3796 52.2487C88.9552 52.2487 90.0044 53.253 90.0044 55.0989V57.634C90.0044 59.4786 88.954 60.4841 87.3796 60.4841C85.8053 60.4841 84.7549 59.4786 84.7549 57.634ZM89.1102 57.634V55.0989C89.1102 53.7334 88.4505 53.1185 87.3847 53.1185C86.319 53.1185 85.6593 53.7334 85.6593 55.0989V57.634C85.6593 58.9995 86.319 59.6144 87.3847 59.6144C88.4505 59.6144 89.1064 58.9995 89.1064 57.634H89.1102Z" fill="white"/>
<path d="M98.3 52.3384V53.2978C97.9827 53.1832 97.6471 53.1272 97.3098 53.1326C96.1851 53.1326 95.4498 54.0293 95.4498 55.5331V60.3099H94.5646V52.428H95.305L95.4549 53.4182V53.4336C95.6546 53.0679 95.952 52.7648 96.3139 52.5583C96.6758 52.3518 97.088 52.2499 97.5045 52.2641C97.7717 52.256 98.0389 52.2809 98.3 52.3384Z" fill="white"/>
<path d="M103.971 56.2992L103.192 57.1536V60.3099H102.307V49.4434H103.192V55.9379L106.177 52.428H107.303L104.572 55.6087L107.691 60.3099H106.626L103.971 56.2992Z" fill="white"/>
<path d="M110.933 57.9645H111.818C111.818 58.9995 112.459 59.6144 113.542 59.6144C114.518 59.6144 115.089 59.1199 115.089 58.2796C115.089 56.3581 111.038 57.0652 111.038 54.3649C111.038 53.0839 111.983 52.25 113.408 52.25C114.878 52.25 115.853 53.2095 115.853 54.6647H114.968C114.968 53.6898 114.398 53.1044 113.408 53.1044C112.478 53.1044 111.939 53.5848 111.939 54.3944C111.939 56.239 115.988 55.5344 115.988 58.309C115.988 59.6144 115.013 60.4867 113.542 60.4867C111.982 60.4842 110.933 59.4786 110.933 57.9645Z" fill="white"/>
<path d="M125.302 55.5485V60.3099H124.417V55.6241C124.417 53.8089 123.952 53.089 122.961 53.089C121.866 53.089 121.146 54.0036 121.146 55.5498V60.3099H120.261V49.5035H121.146V53.4182C121.345 53.0533 121.64 52.7507 122.001 52.5441C122.361 52.3376 122.772 52.2353 123.187 52.2487C124.537 52.2487 125.302 53.2389 125.302 55.5485Z" fill="white"/>
<path d="M129.772 57.634V55.0989C129.772 53.2543 130.822 52.2487 132.397 52.2487C133.973 52.2487 135.022 53.253 135.022 55.0989V57.634C135.022 59.4786 133.971 60.4841 132.397 60.4841C130.823 60.4841 129.772 59.4786 129.772 57.634ZM134.128 57.634V55.0989C134.128 53.7334 133.468 53.1185 132.402 53.1185C131.337 53.1185 130.677 53.7334 130.677 55.0989V57.634C130.677 58.9995 131.337 59.6144 132.402 59.6144C133.468 59.6144 134.119 58.9995 134.119 57.634H134.128Z" fill="white"/>
<path d="M144.729 55.2641V57.5289C144.729 59.4785 143.799 60.4841 142.284 60.4841C141.93 60.4931 141.58 60.4174 141.262 60.2634C140.944 60.1095 140.667 59.8816 140.455 59.599V63H139.583V52.428H140.303L140.424 53.1633C140.637 52.8723 140.918 52.6372 141.242 52.478C141.565 52.3187 141.923 52.2401 142.284 52.2487C143.708 52.2487 144.729 53.2645 144.729 55.2641ZM143.832 55.2641C143.832 53.7192 143.192 53.0736 142.092 53.0736C141.195 53.0736 140.457 53.7641 140.457 55.2334V57.5289C140.457 58.7894 141.098 59.6592 142.092 59.6592C143.245 59.6592 143.832 59.0289 143.832 57.5289V55.2641Z" fill="white"/>
<path d="M19.0956 44.632H14.7313L4.43989 23.1871V44.6307H0.476532V0.00515747H4.43989V20.0512L13.7911 0.00643842H18.0964V0.262635L8.00358 21.5052L19.0956 44.632Z" fill="white"/>
<path d="M27.1376 44.632H23.1743V0.00515747H27.1376V44.632Z" fill="white"/>
<path d="M49.9493 3.51249H43.0487V44.632H39.0853V3.51249H32.127V0.00515747H49.9493V3.51249Z" fill="white"/>
<path d="M72.4754 41.4667C72.4754 42.3984 72.1714 43.1584 71.5633 43.7468C70.9553 44.3352 70.1867 44.6303 69.2576 44.632H57.7672C56.8355 44.632 56.075 44.3369 55.4857 43.7468C54.8965 43.1567 54.6019 42.3967 54.6019 41.4667V3.16531C54.6019 2.23361 54.8965 1.47313 55.4857 0.883877C56.075 0.294626 56.8355 0 57.7672 0H69.2576C70.1884 0 70.957 0.294626 71.5633 0.883877C72.1697 1.47313 72.4737 2.23361 72.4754 3.16531V13.5413H68.4839V3.51245H58.5601V41.1221H68.4839V30.1453H72.4754V41.4667Z" fill="white"/>
<path d="M98.0809 44.632H94.1176V23.1871H83.3676V44.6307H79.4042V0.00515747H83.3676V19.6234H94.1176V0.00515747H98.0809V44.632Z" fill="white"/>
<path d="M119.867 44.632H105.21V0.00515747H119.695V3.51249H109.173V20.1653H118.755V23.7302H109.173V41.1234H119.867V44.632Z" fill="white"/>
<path d="M140.712 0.00515747V32.2564L129.027 0.00515747H126.049V44.623H129.792V11.8145L141.705 44.623H144.449V0.00515747H140.712Z" fill="white"/>
<path d="M174.76 0.00384521H151.306V25.0201H174.76V0.00384521Z" fill="#FF0000"/>
<path d="M160.994 10.2875C160.858 10.1494 160.696 10.0413 160.516 9.97021C160.336 9.89914 160.143 9.86673 159.95 9.87506H155.293L155.524 3.85445H161.253V2.23016H153.731L153.491 11.4942H159.574V21.1797H155.263V16.116H153.442V21.3283C153.433 21.5239 153.464 21.7194 153.534 21.9025C153.603 22.0856 153.709 22.2525 153.846 22.3928C153.983 22.5276 154.147 22.6328 154.326 22.702C154.506 22.7712 154.698 22.8028 154.89 22.795H159.948C160.142 22.8037 160.336 22.7717 160.517 22.7012C160.698 22.6307 160.862 22.5232 160.999 22.3857C161.136 22.2481 161.243 22.0835 161.312 21.9023C161.382 21.7211 161.413 21.5273 161.404 21.3334V11.3315C161.411 11.1386 161.379 10.9462 161.308 10.7664C161.238 10.5867 161.131 10.4236 160.994 10.2875Z" fill="white"/>
<path d="M159.949 23.2344H154.89C154.638 23.2439 154.387 23.201 154.152 23.1086C153.918 23.0162 153.705 22.8763 153.527 22.6976C153.35 22.5189 153.211 22.3053 153.12 22.0703C153.029 21.8353 152.987 21.584 152.998 21.3322V15.6754H155.71V20.734H159.13V11.94H153.035L153.291 1.78439H161.692V4.29384H155.947L155.751 9.42929H159.945C160.196 9.42278 160.446 9.4675 160.68 9.56071C160.914 9.65392 161.126 9.79369 161.304 9.97151C161.482 10.1493 161.622 10.3615 161.715 10.5951C161.808 10.8287 161.853 11.0788 161.847 11.3303V21.3322C161.856 21.5843 161.812 21.8356 161.72 22.0704C161.627 22.3051 161.488 22.5184 161.309 22.6968C161.131 22.8752 160.918 23.015 160.683 23.1075C160.448 23.2 160.197 23.2432 159.945 23.2344H159.949ZM153.888 16.5656V21.3322C153.88 21.4674 153.901 21.6028 153.947 21.7299C153.994 21.8571 154.066 21.9733 154.16 22.0713C154.256 22.1646 154.37 22.237 154.496 22.2837C154.621 22.3305 154.755 22.3506 154.889 22.3429H159.947C160.082 22.3515 160.217 22.3313 160.344 22.2836C160.471 22.2358 160.585 22.1617 160.681 22.0661C160.777 21.9704 160.851 21.8555 160.899 21.729C160.946 21.6024 160.967 21.4671 160.958 21.3322V11.3316C160.965 11.1971 160.943 11.0627 160.894 10.9371C160.846 10.8115 160.772 10.6974 160.677 10.6022C160.581 10.507 160.467 10.4328 160.342 10.3843C160.216 10.3359 160.082 10.3143 159.947 10.3209H154.823L155.088 3.40355H160.8V2.67468H154.158L153.942 11.0485H160.014V21.6242H154.819V16.5669L153.888 16.5656Z" fill="white"/>
<path d="M172.625 21.3348C172.633 21.5279 172.601 21.7204 172.532 21.901C172.463 22.0815 172.358 22.2462 172.224 22.3852C172.088 22.5214 171.924 22.6279 171.745 22.698C171.565 22.7681 171.373 22.8003 171.18 22.7925H166.042C165.847 22.7991 165.652 22.7664 165.469 22.6964C165.287 22.6265 165.12 22.5206 164.979 22.3852C164.839 22.2492 164.73 22.0855 164.657 21.9046C164.584 21.7237 164.551 21.5296 164.557 21.3348V16.7886H166.384V21.1772H170.798V13.5695H165.924C165.732 13.5772 165.539 13.545 165.36 13.4749C165.18 13.4048 165.017 13.2983 164.88 13.1621C164.746 13.0229 164.641 12.858 164.572 12.6773C164.503 12.4965 164.472 12.3037 164.479 12.1104V3.69053C164.472 3.49725 164.503 3.30443 164.572 3.12369C164.641 2.94295 164.746 2.77802 164.88 2.63885C165.017 2.50258 165.18 2.39605 165.36 2.32594C165.539 2.25584 165.732 2.22368 165.924 2.23149H171.176C171.369 2.22384 171.561 2.25607 171.741 2.32616C171.92 2.39626 172.084 2.50271 172.22 2.63885C172.355 2.77766 172.461 2.94244 172.53 3.1232C172.6 3.30397 172.632 3.49697 172.625 3.69053V21.3348ZM170.798 11.9836V3.84681H166.305V11.9798L170.798 11.9836Z" fill="white"/>
<path d="M171.18 23.2396H166.041C165.788 23.2468 165.536 23.2033 165.3 23.1115C165.064 23.0198 164.848 22.8817 164.666 22.7054C164.484 22.5283 164.34 22.3151 164.244 22.0793C164.148 21.8435 164.103 21.5904 164.11 21.336V16.3402H166.829V20.7276H170.353V14.0152H165.923C165.671 14.0236 165.42 13.9799 165.186 13.8869C164.952 13.7939 164.739 13.6535 164.561 13.4747C164.386 13.2947 164.249 13.0812 164.158 12.8471C164.067 12.6129 164.024 12.3628 164.032 12.1117V3.69052C164.024 3.43924 164.067 3.18891 164.158 2.95451C164.249 2.72011 164.386 2.50644 164.561 2.32627C164.739 2.14738 164.952 2.00705 165.186 1.91404C165.42 1.82102 165.671 1.77733 165.923 1.7857H171.175C171.429 1.7758 171.682 1.81861 171.918 1.91143C172.155 2.00425 172.369 2.14507 172.548 2.32499C172.722 2.50603 172.858 2.72021 172.948 2.95479C173.037 3.18938 173.079 3.43958 173.07 3.69052V21.3348C173.078 21.5857 173.035 21.8357 172.944 22.0699C172.854 22.3041 172.717 22.5176 172.542 22.6977C172.364 22.8767 172.152 23.0172 171.917 23.1104C171.683 23.2037 171.432 23.2476 171.18 23.2396ZM165.002 17.2343V21.3335C164.995 21.4684 165.016 21.6034 165.065 21.7293C165.114 21.8552 165.19 21.9692 165.286 22.0636C165.386 22.1594 165.505 22.2338 165.635 22.2825C165.764 22.3311 165.902 22.353 166.041 22.3467H171.18C171.314 22.3536 171.447 22.3327 171.572 22.2853C171.697 22.2379 171.811 22.165 171.906 22.0713C171.999 21.9732 172.071 21.8572 172.118 21.7303C172.165 21.6035 172.185 21.4685 172.178 21.3335V3.69052C172.185 3.55533 172.165 3.42005 172.118 3.29296C172.072 3.16587 172 3.04964 171.906 2.95139C171.811 2.85788 171.697 2.78522 171.572 2.73803C171.447 2.69084 171.314 2.67015 171.18 2.67726H165.928C165.795 2.66999 165.661 2.69061 165.536 2.73781C165.411 2.78501 165.297 2.85775 165.202 2.95139C165.108 3.04952 165.036 3.16566 164.989 3.29274C164.942 3.41982 164.921 3.55516 164.928 3.69052V12.113C164.921 12.2483 164.942 12.3837 164.989 12.5108C165.036 12.6378 165.108 12.754 165.202 12.8521C165.297 12.9457 165.411 13.0184 165.536 13.0656C165.661 13.1128 165.795 13.1334 165.928 13.1262H171.248V21.6243H165.942V17.2343H165.002ZM171.244 12.4255H165.864V3.40102H171.244V12.4255ZM166.751 11.5288H170.354V4.29258H166.751V11.5288Z" fill="white"/>
</svg>
