<svg width="178" height="64" viewBox="0 0 178 64" fill="none" xmlns="http://www.w3.org/2000/svg">
<path d="M0 58.7122V55.8856C0 53.9249 1.02042 52.8372 2.5588 52.8372C4.14368 52.8372 5.14859 53.9318 5.1938 55.8856H4.28059C4.23409 54.4473 3.62572 53.778 2.5588 53.778C1.53838 53.778 0.91321 54.4487 0.91321 55.8856V58.7122C0.91321 60.1505 1.53838 60.8197 2.5588 60.8197C3.62572 60.8197 4.24959 60.1505 4.29609 58.7122H5.2093C5.16409 60.6728 4.14368 61.7675 2.5588 61.7675C1.02042 61.7675 0 60.6728 0 58.7122Z" fill="#403F41"/>
<path d="M13.3953 52.914V53.8917C13.0798 53.775 12.7462 53.718 12.4107 53.7234C11.2919 53.7234 10.5603 54.6402 10.5603 56.167V61.0233H9.67441V53.0059H10.4059L10.5553 54.0148V54.0303C10.7543 53.6568 11.0511 53.3475 11.4124 53.137C11.7736 52.9266 12.1851 52.8233 12.6005 52.8389C12.8675 52.8302 13.1345 52.8554 13.3953 52.914Z" fill="#403F41"/>
<path d="M22.3256 58.9741C22.2076 60.7754 21.2451 61.7675 19.6174 61.7675C18.1114 61.7675 17.1163 60.6728 17.1163 58.7122V55.8856C17.1163 53.9249 18.1202 52.8372 19.6262 52.8372C21.1811 52.8372 22.2164 53.9318 22.2164 55.8856V57.7811H18.0048V58.7122C18.0048 60.1505 18.6323 60.8197 19.6475 60.8197C20.777 60.8197 21.3354 60.2322 21.4534 58.9741H22.3256ZM18.0035 55.8856V56.8832H21.348V55.8856C21.348 54.4473 20.7117 53.778 19.6463 53.778C18.626 53.778 18.0048 54.4473 18.0048 55.8856H18.0035Z" fill="#403F41"/>
<path d="M32 55.6706V61.5704H31.2269L31.1509 60.7738C30.9473 61.0913 30.672 61.3488 30.3506 61.5222C30.0292 61.6957 29.672 61.7795 29.3123 61.7661C27.8537 61.7661 26.7907 60.8014 26.7907 59.1476C26.7907 57.4939 27.7777 56.5967 29.5261 56.5967H31.1058V55.6817C31.1058 54.4303 30.5582 53.7633 29.5261 53.7633C28.6139 53.7633 27.9916 54.3146 27.9297 55.2586H27.0278C27.0883 53.7964 28.0753 52.8372 29.5493 52.8372C31.0697 52.8427 32 53.9314 32 55.6706ZM31.0981 59.1642V57.4897H29.4875C28.3176 57.4897 27.6939 58.0754 27.6939 59.1642C27.6939 60.286 28.4077 60.8179 29.4411 60.8179C30.4745 60.8179 31.1032 60.1399 31.1032 59.1642H31.0981Z" fill="#403F41"/>
<path d="M40.186 60.8718V61.7675H39.6686C38.0141 61.7675 37.1007 60.8066 37.1007 59.1889V54.1676H35.7209V53.2868H37.1007V51.3488H38.1238V53.2855H39.9858V54.1662H38.1179V59.1876C38.1179 60.2923 38.6002 60.8677 39.6686 60.8677L40.186 60.8718Z" fill="#403F41"/>
<path d="M43.9085 51.3011C43.9085 51.1634 43.9521 51.0287 44.0338 50.9142C44.1155 50.7996 44.2316 50.7104 44.3674 50.6577C44.5033 50.6049 44.6528 50.5912 44.797 50.618C44.9412 50.6449 45.0736 50.7112 45.1776 50.8086C45.2816 50.906 45.3524 51.0301 45.3811 51.1652C45.4098 51.3003 45.395 51.4404 45.3388 51.5676C45.2825 51.6949 45.1872 51.8037 45.065 51.8802C44.9427 51.9567 44.799 51.9976 44.6519 51.9976C44.5526 52.0037 44.453 51.9899 44.3598 51.9571C44.2667 51.9243 44.182 51.8732 44.1116 51.8073C44.0413 51.7413 43.9867 51.662 43.9517 51.5748C43.9166 51.4875 43.9019 51.3942 43.9085 51.3011ZM44.2027 53.4053H45.1222V61.0232H44.2027V53.4053Z" fill="#403F41"/>
<path d="M54.3256 53.5814L52.1791 61.0233H51.2567L49.1163 53.5814H50.0093L51.2054 57.9328C51.3642 58.5422 51.5939 59.5207 51.694 59.9318H51.7527C51.8541 59.5207 52.0838 58.5422 52.2414 57.9328L53.4374 53.5814H54.3256Z" fill="#403F41"/>
<path d="M63.2558 58.9741C63.1378 60.7754 62.1753 61.7675 60.5476 61.7675C59.0417 61.7675 58.0465 60.6728 58.0465 58.7122V55.8856C58.0465 53.9249 59.0505 52.8372 60.5564 52.8372C62.1113 52.8372 63.1466 53.9318 63.1466 55.8856V57.7811H58.9338V58.7122C58.9338 60.1505 59.5612 60.8197 60.5765 60.8197C61.7059 60.8197 62.2644 60.2322 62.3824 58.9741H63.2558ZM58.9338 55.8856V56.8832H62.2782V55.8856C62.2782 54.4473 61.6419 53.778 60.5765 53.778C59.5562 53.778 58.9338 54.4473 58.9338 55.8856Z" fill="#403F41"/>
<path d="M82.6046 53.5814L80.6437 61.0233H79.6645L78.6994 57.3234C78.4744 56.4723 78.2175 55.2799 78.1561 54.7991H78.1267C78.0667 55.2799 77.811 56.4723 77.5835 57.3234L76.6145 61.0233H75.6353L73.6744 53.5814H74.6088L75.5919 57.6359C75.7874 58.4016 76.0137 59.5592 76.1032 59.9751H76.1339C76.2233 59.5075 76.4803 58.2453 76.7065 57.3522L77.6602 53.7244H78.6253L79.5751 57.3534C79.8 58.2465 80.057 59.5087 80.1477 59.9763H80.1771C80.2679 59.5652 80.4929 58.4028 80.6885 57.6371L81.6676 53.5826L82.6046 53.5814Z" fill="#403F41"/>
<path d="M86.3256 58.6762V55.9271C86.3256 53.9256 87.3667 52.8372 88.9302 52.8372C90.4938 52.8372 91.5349 53.9269 91.5349 55.9271V58.6762C91.5349 60.6777 90.4925 61.7675 88.9302 61.7675C87.368 61.7675 86.3256 60.6777 86.3256 58.6762ZM90.6414 58.6762V55.9271C90.6414 54.447 89.9865 53.7794 88.9302 53.7794C87.874 53.7794 87.219 54.447 87.219 55.9271V58.6762C87.219 60.1563 87.874 60.8239 88.9302 60.8239C89.9865 60.8239 90.6414 60.1563 90.6414 58.6762Z" fill="#403F41"/>
<path d="M99.7209 52.9139V53.8916C99.4054 53.7749 99.0718 53.7179 98.7363 53.7232C97.6175 53.7232 96.8859 54.6401 96.8859 56.1669V61.0233H96V53.0058H96.7315L96.8923 54.0146V54.0302C97.0913 53.6567 97.3881 53.3474 97.7493 53.1369C98.1106 52.9265 98.5221 52.8232 98.9375 52.8387C99.2007 52.831 99.4638 52.8562 99.7209 52.9139Z" fill="#403F41"/>
<path d="M105.8 57.1776L105.047 58.0021V61.0232H104.186V50.6046H105.047V56.8324L107.931 53.4673H109.019L106.381 56.5165L109.395 61.0184H108.366L105.8 57.1776Z" fill="#403F41"/>
<path d="M113.116 59.0298H114.034C114.034 60.1524 114.698 60.8227 115.811 60.8227C116.817 60.8227 117.404 60.2862 117.404 59.3746C117.404 57.2934 113.23 58.0574 113.23 55.1294C113.23 53.7502 114.204 52.8372 115.672 52.8372C117.188 52.8372 118.192 53.8785 118.192 55.4577H117.274C117.274 54.4012 116.687 53.7654 115.666 53.7654C114.708 53.7654 114.152 54.2854 114.152 55.1639C114.152 57.1651 118.326 56.4052 118.326 59.409C118.326 60.8241 117.321 61.7675 115.806 61.7675C114.198 61.7619 113.116 60.6724 113.116 59.0298Z" fill="#403F41"/>
<path d="M127.256 56.4361V61.0232H126.338V56.5085C126.338 54.7574 125.857 54.0628 124.837 54.0628C123.707 54.0628 122.965 54.9451 122.965 56.4361V61.0232H122.047V50.6046H122.965V54.3818C123.169 54.0304 123.473 53.7388 123.843 53.5395C124.214 53.3402 124.636 53.241 125.064 53.2529C126.467 53.2529 127.256 54.2076 127.256 56.4361Z" fill="#403F41"/>
<path d="M131.721 58.6762V55.9271C131.721 53.9256 132.911 52.8372 134.698 52.8372C136.485 52.8372 137.674 53.9269 137.674 55.9271V58.6762C137.674 60.6777 136.483 61.7675 134.698 61.7675C132.912 61.7675 131.721 60.6777 131.721 58.6762ZM136.653 58.6762V55.9271C136.653 54.447 135.905 53.7794 134.698 53.7794C133.491 53.7794 132.742 54.447 132.742 55.9271V58.6762C132.742 60.1563 133.491 60.8239 134.698 60.8239C135.905 60.8239 136.659 60.1563 136.659 58.6762H136.653Z" fill="#403F41"/>
<path d="M147.349 55.9682V58.3206C147.349 60.3453 146.407 61.3888 144.873 61.3888C144.515 61.3973 144.16 61.3179 143.837 61.157C143.515 60.9962 143.235 60.7587 143.021 60.4642V64H142.14V53.0241H142.869L142.99 53.7876C143.206 53.4853 143.49 53.2412 143.818 53.0758C144.147 52.9105 144.509 52.8289 144.874 52.8379C146.316 52.8379 147.349 53.8959 147.349 55.9682ZM146.437 55.9682C146.437 54.3634 145.784 53.6938 144.675 53.6938C143.764 53.6938 143.019 54.4097 143.019 55.9391V58.3166C143.019 59.6242 143.672 60.5289 144.675 60.5289C145.844 60.5289 146.437 59.8685 146.437 58.3166V55.9682Z" fill="#403F41"/>
<path d="M19.3488 45.3953H14.9893L4.70455 23.5821V45.3953H0.744171V0H4.70455V20.3912L14.0488 0H18.3511V0.258788L8.26585 21.8676L19.3488 45.3953Z" fill="#403F41"/>
<path d="M27.5349 45.3953H23.814V0H27.5349V45.3953Z" fill="#403F41"/>
<path d="M50.6047 3.56869H43.6899V45.3953H39.7175V3.56869H32.7442V0H50.6047V3.56869Z" fill="#403F41"/>
<path d="M73.6744 42.1715C73.6744 43.1202 73.3708 43.893 72.7636 44.4898C72.1564 45.0866 71.3874 45.3884 70.4567 45.3953H58.9808C58.0493 45.3953 57.29 45.0935 56.7032 44.4898C56.1163 43.8861 55.8199 43.1133 55.8139 42.1715V3.22515C55.8139 2.27645 56.1104 1.50326 56.7032 0.905578C57.296 0.307897 58.0552 0.00603719 58.9808 0H70.4567C71.3883 0 72.1572 0.301859 72.7636 0.905578C73.37 1.5093 73.6736 2.28249 73.6744 3.22515V13.7816H69.6882V3.57315H59.7798V41.8235H69.6882V30.659H73.6744V42.1715Z" fill="#403F41"/>
<path d="M99.7146 45.3953H95.7674V23.5821H85.0685V45.3953H81.1163V0H85.0685V19.9565H95.7738V0H99.7209L99.7146 45.3953Z" fill="#403F41"/>
<path d="M122.047 45.3953H107.163V0H121.872V3.56869H111.188V20.5077H120.918V24.1307H111.188V41.8267H122.047V45.3953Z" fill="#403F41"/>
<path d="M143.412 0V32.8093L131.126 0H128V45.3953H131.935V12.0153L144.462 45.3953H147.349V0H143.412Z" fill="#403F41"/>
<path d="M177.86 0H154.047V25.3023H177.86V0Z" fill="#FF0000"/>
<path d="M164.039 10.3968C163.9 10.2568 163.732 10.1472 163.547 10.0753C163.362 10.0033 163.164 9.97058 162.965 9.97917H158.18L158.417 3.87338H164.3V2.23254H156.571L156.329 11.6187H162.582V21.4328H158.151V16.3092H156.28V21.5939C156.272 21.7902 156.305 21.9859 156.376 22.1694C156.447 22.3529 156.555 22.5202 156.693 22.6612C156.835 22.7978 157.003 22.9044 157.187 22.9745C157.372 23.0445 157.569 23.0765 157.767 23.0685H162.967C163.166 23.0767 163.364 23.0441 163.549 22.9729C163.735 22.9016 163.903 22.7932 164.044 22.6545C164.185 22.5158 164.295 22.3498 164.367 22.167C164.439 21.9842 164.472 21.7887 164.464 21.5927V11.455C164.471 11.2593 164.437 11.0642 164.364 10.882C164.291 10.6999 164.18 10.5347 164.039 10.3968Z" fill="white"/>
<path d="M162.541 23.806H157.443C157.189 23.8157 156.935 23.771 156.699 23.6744C156.462 23.5779 156.247 23.4317 156.068 23.2452C155.889 23.0586 155.749 22.8357 155.658 22.5905C155.566 22.3453 155.525 22.0832 155.537 21.8208V15.9419H158.27V21.2053H161.717V12.0536H155.574L155.838 1.48837H164.298V4.09957H158.508L158.311 9.44239H162.541C162.795 9.43475 163.048 9.48065 163.284 9.57729C163.52 9.67393 163.735 9.81929 163.915 10.0045C164.095 10.1896 164.236 10.4108 164.331 10.6543C164.425 10.8979 164.47 11.1587 164.464 11.421V21.8274C164.473 22.0908 164.43 22.3534 164.337 22.5988C164.244 22.8442 164.103 23.0671 163.922 23.2534C163.742 23.4398 163.526 23.5857 163.288 23.6819C163.05 23.7781 162.796 23.8226 162.541 23.8126V23.806ZM156.434 16.8684V21.8274C156.426 21.9681 156.447 22.109 156.494 22.2412C156.541 22.3735 156.614 22.4943 156.708 22.5963C156.805 22.6935 156.92 22.7689 157.047 22.8177C157.173 22.8664 157.308 22.8875 157.443 22.8795H162.541C162.677 22.8887 162.814 22.8677 162.941 22.8181C163.069 22.7684 163.185 22.6913 163.281 22.5917C163.378 22.4921 163.452 22.3724 163.501 22.2406C163.549 22.1088 163.569 21.9679 163.56 21.8274V11.421C163.567 11.2811 163.545 11.1413 163.496 11.0106C163.447 10.8799 163.372 10.7613 163.276 10.6623C163.18 10.5633 163.065 10.4861 162.939 10.4358C162.812 10.3855 162.676 10.3631 162.541 10.3701H157.381L157.648 3.17314H163.405V2.4148H156.712L156.494 11.1272H162.614V22.1318H157.372V16.8684H156.434Z" fill="white"/>
<path d="M175.622 21.5903C175.629 21.786 175.598 21.9812 175.528 22.1642C175.459 22.3471 175.354 22.5141 175.219 22.6549C175.082 22.7931 174.918 22.9012 174.738 22.9724C174.557 23.0436 174.364 23.0764 174.17 23.0686H169.009C168.813 23.0752 168.617 23.0419 168.434 22.9709C168.25 22.8998 168.083 22.7924 167.941 22.6549C167.801 22.517 167.691 22.351 167.618 22.1677C167.545 21.9843 167.511 21.7877 167.518 21.5903V16.9838H169.353V21.4305H173.787V13.7229H168.896C168.702 13.7308 168.509 13.6982 168.328 13.6273C168.148 13.5563 167.984 13.4484 167.847 13.3104C167.712 13.1696 167.606 13.0027 167.537 12.8197C167.468 12.6368 167.436 12.4416 167.443 12.2458V3.71077C167.436 3.51502 167.468 3.3198 167.537 3.13684C167.606 2.95388 167.712 2.78697 167.847 2.64615C167.984 2.50818 168.148 2.40032 168.328 2.32934C168.509 2.25836 168.702 2.2258 168.896 2.2337H174.175C174.369 2.2258 174.562 2.25836 174.743 2.32934C174.923 2.40032 175.087 2.50818 175.224 2.64615C175.359 2.78704 175.464 2.95399 175.533 3.13695C175.603 3.31991 175.634 3.51511 175.627 3.71077L175.622 21.5903ZM173.787 12.1105V3.8706H169.279V12.1118L173.787 12.1105Z" fill="white"/>
<path d="M174.345 23.8129H168.843C168.573 23.8203 168.303 23.775 168.05 23.6795C167.798 23.584 167.567 23.4403 167.373 23.257C167.177 23.0726 167.023 22.8506 166.921 22.6052C166.818 22.3597 166.77 22.0962 166.778 21.8315V16.6378H169.688V21.2041H173.46V14.2156H168.722C168.453 14.2242 168.184 14.1787 167.933 14.0819C167.683 13.9851 167.455 13.8392 167.265 13.6531C167.077 13.4658 166.931 13.2436 166.833 12.9998C166.736 12.756 166.69 12.4956 166.699 12.2342V3.4708C166.69 3.20943 166.736 2.94908 166.833 2.70529C166.931 2.4615 167.078 2.23929 167.265 2.05192C167.455 1.86585 167.683 1.71987 167.933 1.62308C168.184 1.52629 168.453 1.48079 168.722 1.4894H174.349C174.618 1.48103 174.887 1.52664 175.138 1.62341C175.388 1.72019 175.616 1.86605 175.806 2.05192C175.993 2.23949 176.14 2.46177 176.237 2.70553C176.334 2.94929 176.38 3.20954 176.371 3.4708V21.8315C176.38 22.0925 176.334 22.3526 176.237 22.5961C176.14 22.8396 175.993 23.0617 175.806 23.249C175.615 23.4357 175.387 23.5821 175.136 23.6792C174.885 23.7762 174.615 23.8217 174.345 23.8129ZM167.731 17.5643V21.8315C167.723 21.9719 167.746 22.1124 167.799 22.2434C167.852 22.3744 167.932 22.493 168.036 22.5912C168.143 22.6906 168.27 22.7678 168.409 22.8183C168.548 22.8688 168.695 22.8915 168.843 22.885H174.345C174.488 22.8923 174.631 22.8706 174.764 22.8214C174.898 22.7722 175.02 22.6965 175.122 22.5992C175.222 22.4971 175.299 22.3764 175.349 22.2444C175.399 22.1124 175.421 21.972 175.414 21.8315V3.4708C175.422 3.3301 175.4 3.18933 175.35 3.05711C175.299 2.92489 175.222 2.80399 175.122 2.7018C175.02 2.60436 174.898 2.52862 174.765 2.4794C174.631 2.43019 174.488 2.40856 174.345 2.41591H168.722C168.579 2.40831 168.437 2.42969 168.303 2.47868C168.169 2.52767 168.047 2.6032 167.945 2.70048C167.845 2.80254 167.767 2.92336 167.716 3.05556C167.666 3.18777 167.643 3.3286 167.651 3.46948V12.2329C167.643 12.3737 167.665 12.5145 167.715 12.6467C167.766 12.7789 167.843 12.8998 167.943 13.0019C168.045 13.0994 168.167 13.1752 168.301 13.2244C168.435 13.2736 168.578 13.2952 168.721 13.2878H174.416V22.1306H168.736V17.5643H167.731ZM174.413 12.5598H168.649V3.17167H174.413V12.5598ZM169.602 11.6333H173.46V4.09818H169.602V11.6333Z" fill="white"/>
</svg>
