<svg width="139" height="127" viewBox="0 0 139 127" fill="none" xmlns="http://www.w3.org/2000/svg">
<path d="M130.542 42.1735H127.833V34.266C127.833 32.8102 126.621 31.6302 125.125 31.6302H114.292C112.796 31.6302 111.583 32.8102 111.583 34.266V42.1735H91.0052C88.4044 40.8216 85.6803 39.7177 82.875 38.8779V31.6302H91C95.4801 31.6302 99.125 28.0828 99.125 23.7226V7.90754C99.125 3.54732 95.4801 0 91 0H47.6667C43.1865 0 39.5417 3.54732 39.5417 7.90754V23.7226C39.5417 28.0828 43.1865 31.6302 47.6667 31.6302H55.7917V38.8779C52.9864 39.7177 50.2626 40.8216 47.6613 42.1735C41.2233 42.1735 33.1554 42.1735 27.0833 42.1735V34.266C27.0833 32.8102 25.8705 31.6302 24.375 31.6302H13.5417C12.0461 31.6302 10.8333 32.8102 10.8333 34.266V42.1735H8.125C3.64488 42.1735 0 45.7209 0 50.0811C0 52.6806 0 110.536 0 113.341C0 117.702 3.64488 121.249 8.125 121.249H47.6615C54.2956 124.696 61.7709 126.521 69.3333 126.521C76.8958 126.521 84.3708 124.697 91.0052 121.249H130.542C135.022 121.249 138.667 117.702 138.667 113.341C138.667 110.742 138.667 52.8864 138.667 50.0811C138.667 45.7209 135.022 42.1735 130.542 42.1735ZM117 36.9019H122.417V42.1735H117V36.9019ZM47.6667 26.3585C46.1733 26.3585 44.9583 25.176 44.9583 23.7226V7.90754C44.9583 6.45413 46.1733 5.27169 47.6667 5.27169H91C92.4934 5.27169 93.7083 6.45413 93.7083 7.90754V23.7226C93.7083 25.176 92.4934 26.3585 91 26.3585H47.6667ZM77.4583 31.6302V37.6035C74.7871 37.1407 72.0671 36.9019 69.3333 36.9019C66.5995 36.9019 63.8796 37.1407 61.2083 37.6032V31.6302H77.4583ZM16.25 36.9019H21.6667V42.1735H16.25V36.9019ZM5.41667 50.0811C5.41667 48.6277 6.63163 47.4189 8.125 47.4189H39.6692C36.0021 50.428 32.8239 54.0069 30.2675 57.9886H5.41667V50.0811ZM5.41667 63.234H27.368C24.6919 69.0007 23.2917 75.3256 23.2917 81.7112C23.2917 88.0971 24.6919 94.3957 27.368 100.162H5.41667V63.234ZM8.125 115.977C6.63163 115.977 5.41667 114.795 5.41667 113.341V105.434H30.2675C32.8242 109.416 36.0024 112.968 39.6692 115.977H8.125ZM69.3333 121.249C46.8802 121.249 28.7083 103.53 28.7083 81.7112C28.7083 59.9747 46.797 42.1735 69.3333 42.1735C91.7711 42.1735 109.958 59.8791 109.958 81.7112C109.958 103.611 91.7047 121.249 69.3333 121.249ZM133.25 113.341C133.25 114.795 132.035 115.977 130.542 115.977H98.9975C102.665 112.968 105.843 109.416 108.399 105.434H133.25V113.341ZM133.25 100.162H111.299C113.975 94.3955 115.375 88.0968 115.375 81.7112C115.375 75.3256 113.975 69.027 111.299 63.2603H133.25V100.162ZM133.25 57.9886H108.399C105.843 54.0066 102.665 50.4541 98.9975 47.4452H130.542C132.035 47.4452 133.25 48.6277 133.25 50.0811V57.9886Z" fill="#FF0000"/>
</svg>
