<svg width="98" height="151" viewBox="0 0 98 151" fill="none" xmlns="http://www.w3.org/2000/svg">
<path d="M56.9208 78.5698H29.5988C27.922 78.5698 26.563 77.2531 26.563 75.6285C26.563 74.0039 27.922 72.6873 29.5988 72.6873H56.9208C58.5976 72.6873 59.9565 74.0039 59.9565 75.6285C59.9565 77.2531 58.5976 78.5698 56.9208 78.5698Z" fill="#414042"/>
<path d="M67.5521 78.5698C65.8753 78.5698 64.5151 77.2531 64.5151 75.6285C64.5151 74.0039 65.8729 72.6873 67.5497 72.6873H67.5521C69.2289 72.6873 70.5878 74.0039 70.5878 75.6285C70.5878 77.2531 69.2289 78.5698 67.5521 78.5698Z" fill="#414042"/>
<path d="M48.5785 47.3617C46.9017 47.3617 45.5415 46.045 45.5415 44.4205C45.5415 42.7959 46.8993 41.4792 48.5761 41.4792H48.5785C50.2553 41.4792 51.6143 42.7959 51.6143 44.4205C51.6143 46.045 50.2553 47.3617 48.5785 47.3617Z" fill="#414042"/>
<path d="M60.7215 47.3617C59.0447 47.3617 57.6846 46.045 57.6846 44.4205C57.6846 42.7959 59.0424 41.4792 60.7191 41.4792H60.7215C62.3983 41.4792 63.7573 42.7959 63.7573 44.4205C63.7573 46.045 62.3983 47.3617 60.7215 47.3617Z" fill="#414042"/>
<path d="M36.4352 47.3617C34.7584 47.3617 33.3982 46.045 33.3982 44.4205C33.3982 42.7959 34.756 41.4792 36.4328 41.4792H36.4352C38.112 41.4792 39.4709 42.7959 39.4709 44.4205C39.4709 46.045 38.112 47.3617 36.4352 47.3617Z" fill="#414042"/>
<path d="M48.5785 35.5793C46.9017 35.5793 45.5415 34.2627 45.5415 32.6381C45.5415 31.0136 46.8993 29.6969 48.5761 29.6969H48.5785C50.2553 29.6969 51.6143 31.0136 51.6143 32.6381C51.6143 34.2627 50.2553 35.5793 48.5785 35.5793Z" fill="#414042"/>
<path d="M60.7215 35.5793C59.0447 35.5793 57.6846 34.2627 57.6846 32.6381C57.6846 31.0136 59.0424 29.6969 60.7191 29.6969H60.7215C62.3983 29.6969 63.7573 31.0136 63.7573 32.6381C63.7573 34.2627 62.3983 35.5793 60.7215 35.5793Z" fill="#414042"/>
<path d="M36.4352 35.5793C34.7584 35.5793 33.3982 34.2627 33.3982 32.6381C33.3982 31.0136 34.756 29.6969 36.4328 29.6969H36.4352C38.112 29.6969 39.4709 31.0136 39.4709 32.6381C39.4709 34.2627 38.112 35.5793 36.4352 35.5793Z" fill="#414042"/>
<path d="M48.5785 23.7971C46.9017 23.7971 45.5415 22.4805 45.5415 20.8559C45.5415 19.2325 46.8993 17.9147 48.5761 17.9147H48.5785C50.2553 17.9147 51.6143 19.2325 51.6143 20.8559C51.6143 22.4805 50.2553 23.7971 48.5785 23.7971Z" fill="#414042"/>
<path d="M94.1091 64.4253H85.0017V59.0277C85.0017 57.4043 83.6416 56.0865 81.966 56.0865H78.9302V31.0446C78.9302 13.9946 65.3119 0.123657 48.5724 0.123657C31.833 0.123657 18.2147 13.9946 18.2147 31.0446V56.0865H15.1789C13.5033 56.0865 12.1431 57.4043 12.1431 59.0277V64.4253H3.03578C1.36017 64.4253 0 65.7432 0 67.3666V83.8927C0 94.7523 5.11813 104.932 14.4104 112.556C22.8383 119.47 33.7944 123.524 45.5366 124.118V133.05H24.2862C17.5897 133.05 12.1431 138.33 12.1431 144.815V147.774C12.1431 149.397 13.5033 150.715 15.1789 150.715H81.966C83.6416 150.715 85.0017 149.397 85.0017 147.774V144.815C85.0017 138.33 79.5551 133.05 72.8586 133.05H51.6082V124.118C63.3505 123.524 74.3065 119.47 82.7344 112.556C92.0267 104.932 97.1448 94.7523 97.1448 83.8927V67.3666C97.1448 65.7432 95.7847 64.4253 94.1091 64.4253ZM72.8586 138.933C76.2075 138.933 78.9302 141.574 78.9302 144.815V144.833H18.2147V144.815C18.2147 141.574 20.9374 138.933 24.2862 138.933H72.8586ZM24.2862 31.0446C24.2862 17.2391 35.1818 6.00613 48.5724 6.00613C61.963 6.00613 72.8586 17.2391 72.8586 31.0446V56.0865H24.2862V31.0446ZM18.2147 61.9689H78.9302V84.358C78.9302 96.702 65.3119 106.747 48.5724 106.747C31.833 106.747 18.2147 96.702 18.2147 84.358V61.9689ZM91.0733 83.8927C91.0733 102.873 72.0084 118.314 48.5724 118.314C25.1365 118.314 6.07155 102.873 6.07155 83.8927V70.3078H12.1431V84.358C12.1431 92.0489 16.0291 99.2319 23.0873 104.585C29.9261 109.773 38.9765 112.629 48.5724 112.629C58.1683 112.629 67.2187 109.773 74.0575 104.585C81.1157 99.2319 85.0017 92.0489 85.0017 84.358V70.3078H91.0733V83.8927Z" fill="#414042"/>
</svg>
