<svg width="120" height="128" viewBox="0 0 243 259" fill="none" xmlns="http://www.w3.org/2000/svg">
<path d="M238.366 104.899C236.217 104.899 234.483 106.67 234.483 108.847C234.483 186.966 183.748 250.419 121.5 250.419C59.2517 250.419 8.51676 186.966 8.51676 108.847C8.51676 106.67 6.7819 104.899 4.63338 104.899C2.48486 104.899 0.75 106.67 0.75 108.847C0.75 148.619 13.2138 186.051 35.8553 214.244C58.672 242.655 89.0869 258.317 121.5 258.317C153.913 258.317 184.328 242.655 207.145 214.244C229.786 186.05 242.25 148.619 242.25 108.847C242.249 106.67 240.515 104.899 238.366 104.899Z" fill="#FF0000" stroke="#FF0000" stroke-width="0.5"/>
<path d="M92.1323 70.0377C92.1323 68.9924 91.7247 67.9878 90.9964 67.2471C71.8668 47.7735 40.7391 47.7735 21.6115 67.2471C20.8833 67.9884 20.4756 68.9923 20.4756 70.0377C20.4756 71.083 20.8833 72.0877 21.6116 72.8284C31.1756 82.5647 43.7394 87.4335 56.3036 87.4335C68.8679 87.4335 81.433 82.5647 90.9965 72.8283C91.7239 72.0878 92.1323 71.0838 92.1323 70.0377ZM65.1189 61.5025C65.339 62.2093 65.4634 62.945 65.4634 63.6905C65.4634 67.7518 62.2186 71.0487 58.2399 71.0487C54.2612 71.0487 51.0164 67.7518 51.0164 63.6905C51.0164 62.6867 51.2146 61.7155 51.5893 60.8168C56.0968 60.2933 60.672 60.5206 65.1189 61.5025ZM82.4767 70.0377C67.3157 82.7061 45.291 82.7055 30.1292 70.0377C34.122 66.7018 38.5926 64.2514 43.2866 62.673C43.2632 63.009 43.2489 63.3479 43.2489 63.6905C43.2489 72.0983 49.9694 78.9464 58.2392 78.9464C66.3366 78.9464 72.9459 72.3806 73.2181 64.2141C76.488 65.704 79.6067 67.64 82.4767 70.0377Z" fill="#FF0000" stroke="#FF0000" stroke-width="0.5"/>
<path d="M186.693 60.5166H186.693C188.277 60.5159 189.847 60.6147 191.4 60.7934C191.786 61.7021 191.989 62.6813 191.989 63.6904C191.989 67.7517 188.744 71.0486 184.766 71.0486C180.787 71.0486 177.542 67.7517 177.542 63.6904C177.542 62.9286 177.668 62.1814 177.891 61.4682C180.751 60.8396 183.697 60.5166 186.693 60.5166ZM222.522 70.0376C222.522 68.9923 222.114 67.9877 221.386 67.247L221.386 67.2469C212.121 57.8146 199.799 52.6182 186.693 52.6182C173.588 52.6182 161.266 57.8146 152.001 67.247C150.487 68.7888 150.487 71.2864 152.001 72.8282C161.267 82.2606 173.588 87.457 186.693 87.457C199.799 87.457 212.121 82.2606 221.386 72.8282C222.114 72.0877 222.522 71.0837 222.522 70.0376ZM186.693 79.56C177.033 79.56 167.88 76.2058 160.515 70.0383C163.362 67.6553 166.478 65.6996 169.785 64.1885C170.045 72.3669 176.659 78.947 184.766 78.947C193.036 78.947 199.756 72.0989 199.756 63.691C199.756 63.3395 199.74 62.9911 199.715 62.6459C204.48 64.2519 208.932 66.7408 212.87 70.0389C205.507 76.2051 196.353 79.56 186.693 79.56Z" fill="#FF0000" stroke="#FF0000" stroke-width="0.5"/>
<path d="M98.2416 120.54L98.2416 120.54L97.3438 130.883C96.8794 136.235 98.6564 141.578 102.221 145.542L102.407 145.375L102.221 145.542C105.786 149.506 110.86 151.781 116.142 151.781H130.998C133.147 151.781 134.882 150.009 134.882 147.832C134.882 145.655 133.147 143.883 130.998 143.883H116.142C112.99 143.883 110.083 142.581 107.952 140.212C105.822 137.843 104.802 134.778 105.08 131.578L105.958 121.474C111.729 93.8376 111.951 65.7664 106.617 38.0363C103.73 23.0356 93.3461 10.3992 79.5074 5.05953L79.4174 5.29277L79.5074 5.05953C55.4934 -4.20567 28.2455 1.74834 10.092 20.2291C8.57742 21.771 8.57742 24.2686 10.092 25.8104C11.6083 27.3547 14.0706 27.3547 15.5869 25.8104C31.5844 9.5252 55.5929 4.27971 76.7523 12.4442L76.8423 12.211L76.7523 12.4442C88.0927 16.8197 96.6185 27.2062 98.9943 39.5532C104.142 66.3111 103.913 93.3977 98.3121 120.062C98.2789 120.22 98.2557 120.38 98.2416 120.54Z" fill="#FF0000" stroke="#FF0000" stroke-width="0.5"/>
<path d="M145.974 25.8111C168.427 2.95369 204.958 2.95368 227.41 25.811C228.168 26.5827 229.163 26.9693 230.158 26.9693C231.153 26.9693 232.148 26.5827 232.906 25.8111C234.42 24.2693 234.42 21.7717 232.906 20.2299C207.424 -5.71085 165.961 -5.71085 140.48 20.2299C138.965 21.7717 138.965 24.2693 140.48 25.8111C141.995 27.3555 144.458 27.3554 145.974 25.8111Z" fill="#FF0000" stroke="#FF0000" stroke-width="0.5"/>
<path d="M158.006 190.949L158.006 190.948C159.053 188.897 158.273 186.363 156.246 185.291C156.246 185.291 156.246 185.291 156.246 185.291L132.1 172.509C130.578 171.703 128.723 171.937 127.441 173.097L127.441 173.097L121.498 178.475L115.555 173.097L115.555 173.097C114.273 171.938 112.418 171.702 110.896 172.509C110.896 172.509 110.896 172.509 110.896 172.509L86.7496 185.291C86.7496 185.291 86.7496 185.291 86.7496 185.291C84.7235 186.363 83.9428 188.897 84.9904 190.948L84.9904 190.949C86.0406 193.004 88.5374 193.813 90.5693 192.738L90.5694 192.738L112.186 181.295L118.748 187.233C118.748 187.233 118.748 187.234 118.748 187.234C120.315 188.652 122.68 188.652 124.247 187.234C124.247 187.234 124.247 187.233 124.247 187.233L130.81 181.295L152.426 192.738C153.035 193.061 153.689 193.214 154.333 193.214C155.829 193.214 157.271 192.387 158.006 190.949Z" fill="#FF0000" stroke="#FF0000"/>
<path d="M110.829 202.14C108.538 202.14 106.695 204.028 106.695 206.339C106.695 208.65 108.538 210.538 110.829 210.538H131.178C133.469 210.538 135.312 208.65 135.312 206.339C135.312 204.028 133.469 202.14 131.178 202.14H110.829Z" fill="#FF0000" stroke="#FF0000"/>
<path d="M60.4285 138.245C62.9021 138.245 64.8922 136.206 64.8922 133.71C64.8922 131.214 62.9021 129.175 60.4285 129.175C57.9549 129.175 55.9648 131.214 55.9648 133.71C55.9648 136.206 57.9549 138.245 60.4285 138.245Z" fill="#FF0000" stroke="#FF0000"/>
<path d="M161.123 116.159C163.597 116.159 165.587 114.119 165.587 111.623C165.587 109.127 163.597 107.088 161.123 107.088C158.649 107.088 156.659 109.127 156.659 111.623C156.659 114.119 158.649 116.159 161.123 116.159Z" fill="#FF0000" stroke="#FF0000"/>
<path d="M51.5086 186.664C53.9822 186.664 55.9723 184.625 55.9723 182.129C55.9723 179.633 53.9822 177.594 51.5086 177.594C49.035 177.594 47.0449 179.633 47.0449 182.129C47.0449 184.625 49.035 186.664 51.5086 186.664Z" fill="#FF0000" stroke="#FF0000"/>
<path d="M173.711 119.827L173.711 119.827L206.075 147.726C206.075 147.726 206.075 147.726 206.075 147.726C207.187 148.684 207.677 150.194 207.346 151.635C207.015 153.076 205.918 154.211 204.502 154.57L204.502 154.57L196.055 156.709L205.897 173.121C207.012 174.981 206.437 177.409 204.607 178.547C203.976 178.94 203.276 179.127 202.585 179.127C201.276 179.127 199.998 178.453 199.267 177.233C199.267 177.233 199.267 177.233 199.267 177.233L189.43 160.829L183.706 167.493L183.706 167.493C182.959 168.363 181.888 168.845 180.781 168.845C180.467 168.845 180.15 168.806 179.837 168.726L179.837 168.726C178.422 168.365 177.327 167.229 176.998 165.787L167.417 123.73C167.417 123.73 167.417 123.73 167.417 123.73C167.04 122.074 167.746 120.357 169.175 119.47L173.711 119.827ZM173.711 119.827C172.434 118.726 170.605 118.58 169.175 119.47L173.711 119.827ZM187.064 151.576L182.851 156.482L177.628 133.557L195.273 148.767L189.05 150.342C188.278 150.537 187.586 150.968 187.064 151.576L187.064 151.576Z" fill="#FF0000" stroke="#FF0000" stroke-width="0.5"/>
</svg>
