<svg width="148" height="152" viewBox="0 0 148 152" fill="none" xmlns="http://www.w3.org/2000/svg">
<path d="M82.8969 53.408C77.1745 53.408 72.5348 57.9032 72.5348 63.4474C72.5348 68.9916 77.1745 73.4868 82.8969 73.4868C88.6194 73.4868 93.259 68.9916 93.259 63.4474V28.3094C93.259 26.9234 92.0991 25.7996 90.6685 25.7996H54.4011C52.9704 25.7996 51.8105 26.9234 51.8105 28.3094V54.8063C50.2433 53.9006 48.4547 53.4178 46.6295 53.408C40.907 53.408 36.2673 57.9032 36.2673 63.4474C36.2673 68.9916 40.907 73.4868 46.6295 73.4868C52.3519 73.4868 56.9916 68.9916 56.9916 63.4474V40.8587H82.8969V35.839H56.9916V30.8193H88.078V54.8063C86.5107 53.9006 84.7222 53.4178 82.8969 53.408ZM82.8969 68.4671C80.0357 68.4671 77.7158 66.2195 77.7158 63.4474C77.7158 60.6753 80.0357 58.4277 82.8969 58.4277C85.7581 58.4277 88.078 60.6753 88.078 63.4474C88.078 66.2195 85.7581 68.4671 82.8969 68.4671ZM46.6295 68.4671C43.7682 68.4671 41.4484 66.2195 41.4484 63.4474C41.4484 60.6753 43.7682 58.4277 46.6295 58.4277C49.4907 58.4277 51.8105 60.6753 51.8105 63.4474C51.8105 66.2195 49.4907 68.4671 46.6295 68.4671Z" fill="#414042"/>
<path d="M0 116.154V121.174H7.77159V148.782C7.77159 150.168 8.93151 151.292 10.3621 151.292H108.802C115.953 151.284 121.746 145.671 121.755 138.743V113.644H116.574V118.664C116.574 122.822 113.094 126.194 108.802 126.194H12.9526V121.174H20.7242V116.154H12.9526V106.115H20.7242V101.095H12.9526V91.0557H20.7242V86.036H12.9526V75.9966H20.7242V70.9769H12.9526V60.9374H20.7242V55.9177H12.9526V45.8783H20.7242V40.8586H12.9526V30.8192H20.7242V25.7995H12.9526V15.7601H20.7242V10.7403H12.9526V5.72064H108.802C113.094 5.72064 116.574 9.09203 116.574 13.2502V73.4867H121.755V13.2502C121.746 6.32237 115.953 0.709506 108.802 0.700928H10.3621C8.93151 0.700928 7.77159 1.82473 7.77159 3.21078V10.7403H0V15.7601H7.77159V25.7995H0V30.8192H7.77159V40.8586H0V45.8783H7.77159V55.9177H0V60.9374H7.77159V70.9769H0V75.9966H7.77159V86.036H0V91.0557H7.77159V101.095H0V106.115H7.77159V116.154H0ZM12.9526 131.213H108.802C111.614 131.204 114.345 130.299 116.574 128.639V128.704C116.574 132.862 113.094 136.233 108.802 136.233H12.9526V131.213ZM12.9526 141.253H108.802C111.614 141.243 114.345 140.339 116.574 138.678V138.743C116.574 142.901 113.094 146.273 108.802 146.273H12.9526V141.253Z" fill="#414042"/>
<path d="M145.07 88.546H137.298V81.0164C137.298 79.6304 136.138 78.5066 134.708 78.5066H95.8497V83.5263H132.117V88.546H51.8107C51.2504 88.546 50.7052 88.7225 50.2561 89.0484L40.5859 96.0755H33.677V101.095H40.5859L50.2561 108.122C50.7052 108.448 51.2504 108.625 51.8107 108.625H145.07C146.5 108.625 147.66 107.501 147.66 106.115V91.0558C147.66 89.6698 146.5 88.546 145.07 88.546ZM95.8497 103.605H52.6734L45.767 98.5854L52.6734 93.5657H95.8497V103.605ZM132.117 103.605H101.031V93.5657H132.117V103.605ZM142.479 103.605H137.298V93.5657H142.479V103.605Z" fill="#414042"/>
</svg>
