<svg width="109" height="151" viewBox="0 0 109 151" fill="none" xmlns="http://www.w3.org/2000/svg">
<path d="M100.715 150.715C104.992 150.71 108.457 147.342 108.462 143.186V7.65323C108.457 3.49628 104.992 0.128559 100.715 0.123657H7.7473C3.47014 0.128559 0.00504381 3.49628 0 7.65323V143.186C0.00504381 147.342 3.47014 150.71 7.7473 150.715H100.715ZM5.16486 7.65323C5.16613 6.26717 6.32116 5.1446 7.7473 5.14337H100.715C102.141 5.1446 103.296 6.26717 103.297 7.65323V85.4588H5.16486V7.65323ZM5.16486 143.186V90.4785H103.297V143.186C103.296 144.572 102.141 145.694 100.715 145.695H7.7473C6.32116 145.694 5.16613 144.572 5.16486 143.186Z" fill="#414042"/>
<path d="M54.2311 15.1829C37.1162 15.1829 23.2419 28.6672 23.2419 45.3011C23.2419 61.9351 37.1162 75.4194 54.2311 75.4194C71.3461 75.4194 85.2203 61.9351 85.2203 45.3011C85.2014 28.6746 71.3385 15.2012 54.2311 15.1829ZM54.2311 70.3997C39.9685 70.3997 28.4068 59.163 28.4068 45.3011C28.4068 31.4393 39.9685 20.2026 54.2311 20.2026C68.4938 20.2026 80.0555 31.4393 80.0555 45.3011C80.0391 59.1556 68.4862 70.3838 54.2311 70.3997Z" fill="#414042"/>
<path d="M54.2311 30.2419C45.6743 30.2419 38.7366 36.9847 38.7366 45.3011C38.7366 53.6174 45.6743 60.3602 54.2311 60.3602C62.788 60.3602 69.7257 53.6174 69.7257 45.3011C69.7169 36.9884 62.7842 30.2505 54.2311 30.2419ZM54.2311 55.3405C48.5266 55.3405 43.9014 50.8453 43.9014 45.3011C43.9014 39.7569 48.5266 35.2617 54.2311 35.2617C59.9357 35.2617 64.5609 39.7569 64.5609 45.3011C64.5545 50.8429 59.9332 55.3344 54.2311 55.3405Z" fill="#414042"/>
<path d="M25.8245 17.6925C25.8245 20.4646 23.5119 22.7122 20.6595 22.7122C17.8072 22.7122 15.4946 20.4646 15.4946 17.6925C15.4946 14.9204 17.8072 12.6729 20.6595 12.6729C23.5119 12.6729 25.8245 14.9204 25.8245 17.6925Z" fill="#414042"/>
<path d="M92.9677 17.6925C92.9677 20.4646 90.6551 22.7122 87.8028 22.7122C84.9505 22.7122 82.6379 20.4646 82.6379 17.6925C82.6379 14.9204 84.9505 12.6729 87.8028 12.6729C90.6551 12.6729 92.9677 14.9204 92.9677 17.6925Z" fill="#414042"/>
<path d="M25.8245 72.9096C25.8245 75.6817 23.5119 77.9293 20.6595 77.9293C17.8072 77.9293 15.4946 75.6817 15.4946 72.9096C15.4946 70.1375 17.8072 67.8899 20.6595 67.8899C23.5119 67.8899 25.8245 70.1375 25.8245 72.9096Z" fill="#414042"/>
<path d="M92.9677 72.9096C92.9677 75.6817 90.6551 77.9293 87.8028 77.9293C84.9505 77.9293 82.6379 75.6817 82.6379 72.9096C82.6379 70.1375 84.9505 67.8899 87.8028 67.8899C90.6551 67.8899 92.9677 70.1375 92.9677 72.9096Z" fill="#414042"/>
<path d="M28.4068 125.153V138.166H33.5717V125.155C36.6648 124.106 38.7366 121.271 38.7366 118.087C38.7366 114.903 36.6648 112.069 33.5717 111.019V98.0082H28.4068V111.019C25.3137 112.069 23.2419 114.903 23.2419 118.087C23.2419 121.271 25.3137 124.106 28.4068 125.153ZM30.9893 115.577C32.4154 115.577 33.5717 116.701 33.5717 118.087C33.5717 119.473 32.4154 120.597 30.9893 120.597C29.5631 120.597 28.4068 119.473 28.4068 118.087C28.4081 116.701 29.5631 115.578 30.9893 115.577Z" fill="#414042"/>
<path d="M51.6485 120.134V138.166H56.8134V120.135C59.9065 119.086 61.9783 116.251 61.9783 113.067C61.9783 109.883 59.9065 107.049 56.8134 106V98.0082H51.6485V106C48.5554 107.049 46.4836 109.883 46.4836 113.067C46.4836 116.251 48.5554 119.086 51.6485 120.134ZM54.231 110.557C55.6571 110.557 56.8134 111.681 56.8134 113.067C56.8134 114.453 55.6571 115.577 54.231 115.577C52.8048 115.577 51.6485 114.453 51.6485 113.067C51.6498 111.681 52.8048 110.559 54.231 110.557Z" fill="#414042"/>
<path d="M74.8904 132.683V138.166H80.0553V132.684C83.1484 131.635 85.2201 128.8 85.2201 125.617C85.2201 122.433 83.1484 119.598 80.0553 118.549V98.0082H74.8904V118.549C71.7973 119.598 69.7256 122.433 69.7256 125.617C69.7256 128.8 71.7973 131.635 74.8904 132.683ZM77.4728 123.107C78.899 123.107 80.0553 124.231 80.0553 125.617C80.0553 127.003 78.899 128.126 77.4728 128.126C76.0467 128.126 74.8904 127.003 74.8904 125.617C74.8917 124.231 76.0467 123.108 77.4728 123.107Z" fill="#414042"/>
</svg>
