<svg width="179" height="152" viewBox="0 0 179 152" fill="none" xmlns="http://www.w3.org/2000/svg">
<path d="M175.773 89.8277C177.217 89.8277 178.386 88.6903 178.386 87.2885V18.4313C178.386 8.65428 170.201 0.700928 160.139 0.700928H18.2466C8.18492 0.700928 0 8.65428 0 18.4313V133.562C0 143.339 8.18492 151.292 18.2466 151.292H160.139C170.201 151.292 178.386 143.339 178.386 133.562V97.3644C178.386 95.9626 177.217 94.8253 175.773 94.8253C174.329 94.8253 173.16 95.9626 173.16 97.3644V115.293C173.16 122.271 167.319 127.945 160.139 127.945H18.2466C11.0675 127.945 5.22616 122.271 5.22616 115.293V18.4313C5.22616 11.4553 11.0675 5.77922 18.2466 5.77922H160.139C167.319 5.77922 173.16 11.4553 173.16 18.4313V87.2885C173.16 88.6903 174.329 89.8277 175.773 89.8277ZM18.2466 133.024H160.139C165.235 133.024 169.846 130.982 173.16 127.698V133.563C173.16 140.539 167.319 146.214 160.139 146.214H18.2466C11.0675 146.214 5.22616 140.539 5.22616 133.563V127.698C8.54014 130.982 13.1511 133.024 18.2466 133.024Z" fill="#414042"/>
<path d="M21.3157 45.6887C19.9805 45.1557 18.4535 45.7773 17.905 47.0733C15.2525 53.3564 13.9065 60.0151 13.9065 66.8628C13.9065 95.6201 37.9849 119.017 67.5807 119.017C97.1766 119.017 121.255 95.6214 121.255 66.8628C121.255 38.103 97.1766 14.707 67.5807 14.707C49.8159 14.707 33.2256 23.233 23.2047 37.5145C22.3922 38.6729 22.6998 40.252 23.892 41.0428C25.0842 41.8323 26.7092 41.5335 27.5231 40.375C36.5695 27.4822 51.5443 19.7853 67.5807 19.7853C94.2954 19.7853 116.029 40.904 116.029 66.8628C116.029 92.8217 94.2954 113.94 67.5807 113.94C40.8675 113.94 19.1326 92.8217 19.1326 66.8628C19.1326 60.6789 20.3466 54.6696 22.7406 49.0015C23.2891 47.7041 22.6508 46.2203 21.3157 45.6887Z" fill="#414042"/>
<path d="M164.158 24.9205C164.158 19.2894 159.444 14.707 153.648 14.707H140.767C134.971 14.707 130.255 19.2894 130.255 24.9205V65.0125C130.255 70.6449 134.971 75.2273 140.767 75.2273H153.648C159.444 75.2273 164.158 70.6449 164.158 65.0125V24.9205ZM158.932 65.0125C158.932 67.8439 156.561 70.149 153.648 70.149H140.767C137.852 70.149 135.481 67.8439 135.481 65.0125V24.9205C135.481 22.0891 137.852 19.7853 140.767 19.7853H153.648C156.561 19.7853 158.932 22.0891 158.932 24.9205V65.0125Z" fill="#414042"/>
<path d="M155.047 46.6466V27.8398C155.047 23.6397 151.53 20.2224 147.208 20.2224C142.885 20.2224 139.368 23.6397 139.368 27.8398V46.6466C137.203 48.0035 135.766 50.3654 135.766 53.05C135.766 55.7333 137.203 58.0966 139.368 59.4534V62.0957C139.368 66.2959 142.885 69.7131 147.208 69.7131C151.53 69.7131 155.047 66.2959 155.047 62.0957V59.4534C157.211 58.0966 158.648 55.7333 158.648 53.05C158.648 50.3654 157.211 48.0035 155.047 46.6466ZM150.809 55.5892H143.605C142.164 55.5892 140.992 54.4505 140.992 53.05C140.992 51.6495 142.164 50.5109 143.605 50.5109H150.809C152.25 50.5109 153.422 51.6495 153.422 53.05C153.422 54.4505 152.25 55.5892 150.809 55.5892ZM147.208 25.3007C148.649 25.3007 149.821 26.4393 149.821 27.8398V45.4326H144.595V27.8398C144.595 26.4393 145.766 25.3007 147.208 25.3007ZM147.208 64.6335C143.821 64.6335 144.595 60.6661 144.595 60.6661H149.821C149.821 60.6675 150.592 64.6335 147.208 64.6335Z" fill="#414042"/>
<path d="M144.396 97.7808H149.886C153.646 97.7808 156.704 94.8079 156.704 91.1552V85.8191C156.704 82.1652 153.646 79.1936 149.886 79.1936H144.396C140.635 79.1936 137.576 82.1652 137.576 85.8191V91.1552C137.576 94.8079 140.635 97.7808 144.396 97.7808ZM142.802 85.8178C142.802 84.9648 143.517 84.2705 144.394 84.2705H149.886C150.765 84.2705 151.478 84.9648 151.478 85.8178V91.1539C151.478 92.0082 150.764 92.7012 149.886 92.7012H144.396C143.517 92.7012 142.802 92.0069 142.802 91.1539V85.8178Z" fill="#414042"/>
<path d="M130.255 109.834C130.255 114.295 133.99 117.922 138.579 117.922H155.835C160.425 117.922 164.158 114.295 164.158 109.834C164.158 105.375 160.425 101.747 155.835 101.747H138.579C133.99 101.747 130.255 105.375 130.255 109.834ZM138.579 106.826H155.835C157.543 106.826 158.932 108.174 158.932 109.834C158.932 111.494 157.544 112.844 155.835 112.844H138.579C136.871 112.844 135.481 111.495 135.481 109.834C135.481 108.174 136.871 106.826 138.579 106.826Z" fill="#414042"/>
<path d="M93.0188 66.8631C93.0188 53.2324 81.607 42.1436 67.5808 42.1436C53.5532 42.1436 42.1414 53.2324 42.1414 66.8631C42.1414 80.4924 53.5532 91.5813 67.5808 91.5813C81.607 91.5813 93.0188 80.4924 93.0188 66.8631ZM47.3689 66.8631C47.3689 56.0334 56.4357 47.2218 67.5808 47.2218C78.7258 47.2218 87.7926 56.0334 87.7926 66.8631C87.7926 77.6928 78.7258 86.503 67.5808 86.503C56.4357 86.503 47.3689 77.6928 47.3689 66.8631Z" fill="#414042"/>
<path d="M77.5717 66.8629C77.5717 61.5096 73.09 57.1548 67.5808 57.1548C62.0715 57.1548 57.5898 61.5096 57.5898 66.8629C57.5898 72.2162 62.0715 76.571 67.5808 76.571C73.09 76.571 77.5717 72.2149 77.5717 66.8629ZM62.816 66.8629C62.816 64.3106 64.9541 62.233 67.5808 62.233C70.2075 62.233 72.3456 64.3106 72.3456 66.8629C72.3456 69.4153 70.2075 71.4928 67.5808 71.4928C64.9541 71.4928 62.816 69.4153 62.816 66.8629Z" fill="#414042"/>
<path d="M80.2718 100.861C79.6839 99.5812 80.2745 98.0802 81.5933 97.5076C89.9851 93.8695 96.6539 86.9966 99.8903 78.6531C100.399 77.3399 101.907 76.6773 103.257 77.1719C104.607 77.6665 105.289 79.1305 104.782 80.4437C101.057 90.0475 93.423 98.0524 83.7233 102.145C82.1595 102.805 80.706 101.806 80.2718 100.861Z" fill="#414042"/>
<path d="M30.456 69.4021C29.0133 69.4021 27.8429 68.2648 27.8429 66.8629C27.8429 45.5711 45.669 28.2493 67.5807 28.2493C69.0233 28.2493 70.1938 29.3866 70.1938 30.7884C70.1938 32.1902 69.0233 33.3276 67.5807 33.3276C48.5515 33.3276 33.069 48.3708 33.069 66.8629C33.069 68.2648 31.9 69.4021 30.456 69.4021Z" fill="#414042"/>
</svg>
