<svg width="134" height="152" viewBox="0 0 134 152" fill="none" xmlns="http://www.w3.org/2000/svg">
<path d="M88.0667 15.7397V10.7192C77.0995 10.7192 69.7278 18.7905 69.7278 30.8013H74.9096C74.9096 23.8527 78.3558 15.7397 88.0667 15.7397Z" fill="#414042"/>
<path d="M49.9617 57.6785L53.6254 54.1289L61.3994 61.6594L57.7344 65.2102L49.9617 57.6785Z" fill="#414042"/>
<path d="M54.3847 151.292V84.3176L88.9218 55.4169C104.355 55.0896 116.656 42.8167 116.544 27.8619C116.43 12.906 103.944 0.809532 88.5069 0.701671C73.0714 0.592583 60.4053 12.5125 60.0688 27.466L16.5571 76.2819L7.46484 85.0898L15.5513 92.9245C10.9856 94.904 7.96456 99.2135 7.74823 104.055V151.292H12.9301V104.055C12.9301 100.038 16.9252 97.7243 19.4073 96.6776L29.4332 106.39L38.5331 97.5735L38.8392 97.3223V151.292H54.3847ZM49.2029 146.272H44.021V92.9907L49.2029 88.6554V146.272ZM88.3019 5.69884C101.05 5.69884 111.385 15.7116 111.385 28.0629C111.385 40.4143 101.05 50.427 88.3019 50.427C75.5535 50.427 65.219 40.4143 65.219 28.0629C65.2354 15.7177 75.5599 5.71478 88.3019 5.69884ZM60.8076 34.3165C63.2758 44.4199 71.4192 52.3097 81.8474 54.701L36.8986 92.3177L21.9818 77.8655L60.8076 34.3165ZM29.4421 99.2907L14.7847 85.0898L18.4484 81.5414L33.1045 95.7411L29.4421 99.2907Z" fill="#414042"/>
<path d="M119.157 88.9985V67.481L90.6573 76.6861V94.0068C87.0872 95.2288 84.9467 98.765 85.5868 102.381C86.2269 105.996 89.4618 108.638 93.2482 108.638C97.0334 108.638 100.268 105.996 100.908 102.381C101.548 98.765 99.4079 95.2288 95.8391 94.0068V90.3443L113.976 84.4878V89.0058C110.405 90.2291 108.265 93.7653 108.905 97.3799C109.545 100.995 112.78 103.637 116.566 103.637C120.352 103.637 123.586 100.995 124.227 97.3799C124.867 93.7653 122.726 90.2291 119.157 89.0058V88.9985ZM93.2482 103.598C91.8174 103.598 90.6573 102.474 90.6573 101.088C90.6573 99.7015 91.8174 98.5775 93.2482 98.5775C94.679 98.5775 95.8391 99.7015 95.8391 101.088C95.8391 102.474 94.679 103.598 93.2482 103.598ZM95.8391 85.0553V80.3057L113.976 74.4492V79.1988L95.8391 85.0553ZM116.566 98.5775C115.136 98.5775 113.976 97.4535 113.976 96.0672C113.976 94.6809 115.136 93.5569 116.566 93.5569C117.997 93.5569 119.157 94.6809 119.157 96.0672C119.157 97.4535 117.997 98.5775 116.566 98.5775Z" fill="#414042"/>
<path d="M15.521 45.8626C15.5071 42.6832 13.4336 39.8542 10.3391 38.794V27.4355L28.4756 19.9048V4.4021L5.15731 14.0864V38.794C1.44045 40.0773 -0.691236 43.8574 0.203188 47.5811C1.09761 51.3047 4.7335 53.7843 8.65277 53.3443C12.5733 52.9055 15.5273 49.6856 15.521 45.8626ZM10.3391 17.3945L23.2937 12.0174V16.5966L10.3391 21.9737V17.3945ZM5.15731 45.8626C5.15731 44.4764 6.3174 43.3524 7.74823 43.3524C9.17905 43.3524 10.3391 44.4764 10.3391 45.8626C10.3391 47.2489 9.17905 48.3729 7.74823 48.3729C6.3174 48.3729 5.15731 47.2489 5.15731 45.8626Z" fill="#414042"/>
<path d="M124.339 4.14834V14.1893L120.59 16.0034L122.906 20.4968L129.521 17.2916V7.25061L133.27 5.43534L130.953 0.941895L124.339 4.14834Z" fill="#414042"/>
</svg>
