<svg width="131" height="127" viewBox="0 0 131 127" fill="none" xmlns="http://www.w3.org/2000/svg">
<path d="M129.212 104.053L98.3175 90.0214C98.2748 89.9736 98.2214 89.9342 98.1723 89.8905C98.119 89.8428 98.0656 89.7971 98.008 89.7535C97.9696 89.7244 97.9375 89.687 97.897 89.66C97.8266 89.6143 97.7497 89.5894 97.675 89.554C97.6345 89.5333 97.6024 89.5042 97.5619 89.4855L82.2564 83.1021L57.9011 72.9423L64.6265 70.7612L80.9651 77.3419H80.9672L125.787 95.3911C126.047 95.497 126.325 95.549 126.602 95.549C127.018 95.549 127.432 95.4305 127.789 95.2C128.38 94.8136 128.736 94.1655 128.736 93.4717V27C128.736 26.1587 128.216 25.4005 127.42 25.0806L110.345 18.2029H110.342L65.5229 0.153722C65.365 0.0893276 65.2006 0.0477827 65.0341 0.0228558C65.0299 0.0228558 65.0277 0.0207786 65.0235 0.0207786C64.7033 -0.0249207 64.3789 0.0062379 64.0715 0.0997138C64.0587 0.103868 64.0438 0.0997138 64.031 0.103868L0 20.8763L1.35105 24.8168L62.5711 4.95423V67.0471L54.0336 69.8161V51.9269C54.0336 51.2684 53.7135 50.6494 53.1713 50.2568C52.6271 49.8663 51.9249 49.7458 51.2782 49.939L2.18773 64.4797C1.28916 64.7455 0.67446 65.5536 0.67446 66.4676V87.24V99.7034C0.67446 100.503 1.14615 101.232 1.88678 101.577L24.5922 112.146L14.7314 116.508C13.9737 116.841 13.4871 117.574 13.4807 118.382C13.4743 119.19 13.9502 119.93 14.7015 120.276L27.5184 126.186L29.3433 122.431L20.682 118.438L29.6165 114.487L50.9751 124.429C51.037 124.458 51.1031 124.468 51.165 124.489C51.2355 124.514 51.3038 124.539 51.3763 124.558C51.5001 124.589 51.6261 124.603 51.752 124.612C51.8032 124.614 51.8502 124.63 51.8993 124.63C51.9185 124.63 51.9355 124.624 51.9526 124.622C52.0849 124.618 52.213 124.595 52.3411 124.568C52.3966 124.556 52.4542 124.553 52.5097 124.537C52.5652 124.52 52.6185 124.493 52.674 124.472C52.6954 124.464 52.7167 124.468 52.7381 124.46L97.5598 105.765C98.3473 105.441 98.8553 104.689 98.8553 103.858V94.851L123.206 105.912L85.1655 122.74L86.9327 126.521L129.193 107.825C129.951 107.491 130.44 106.756 130.444 105.946C130.448 105.135 129.966 104.396 129.212 104.053ZM111.662 74.7766V54.0041V45.6952V23.2319L124.468 28.3876V90.3621L111.662 85.2043V74.7766ZM107.393 83.4864L87.5773 75.5057L98.7038 72.8011L107.393 76.1828V83.4864ZM92.4522 70.0384V53.5492L96.721 52.5106V68.9997L92.4522 70.0384ZM107.393 71.7085L100.99 69.2158V52.9177L104.191 54.1641L107.393 55.4104V71.7085ZM107.393 50.936L104.191 49.6897L100.99 48.4434V44.6088L107.393 47.1015V50.936ZM83.9148 12.0563L107.393 21.5119V42.6271L100.99 40.1344V33.2317H96.721V39.9184L83.9148 43.0342V12.0563ZM83.9148 47.3175L96.721 44.2016V48.2273L83.9148 51.3432V47.3175ZM83.9148 55.6265L88.1835 54.5878V71.077L83.9148 72.1156V55.6265ZM66.8398 5.18065L79.646 10.3384V45.6952V54.0041V72.3129L66.8398 67.1551V5.18065ZM51.7755 74.9074L76.0475 85.0319L37.9192 101.28L8.6826 87.67L11.9653 86.6978L24.7736 82.9048L30.229 81.2887L33.3111 80.3768H33.3132L46.1194 76.5837L51.7755 74.9074ZM13.4807 81.9077V76.2742L22.0181 73.5053V79.3797L13.4807 81.9077ZM34.8243 75.5867V70.0425L43.3618 67.2736V73.0566L39.8038 74.1097L34.8243 75.5867ZM4.94319 68.0068L49.7649 54.7312V71.1621L47.6305 71.7936V64.3903C47.6305 63.7235 47.3018 63.0941 46.7448 62.7057C46.1834 62.3131 45.4684 62.2092 44.8217 62.419L32.0155 66.5735C31.1425 66.8581 30.5556 67.6495 30.5556 68.5448V76.8496L26.2869 78.1147V70.6221C26.2869 69.9553 25.9582 69.3279 25.4011 68.9374C24.8419 68.5469 24.1269 68.441 23.478 68.6508L10.6718 72.8052C9.79888 73.0898 9.21193 73.8813 9.21193 74.7766V83.1728L4.94319 84.4357V68.0068ZM49.7649 119.257L30.5641 110.318H30.562L4.94319 98.3948V90.5366L49.7649 111.398V119.257ZM51.9483 107.809L43.0032 103.646L81.4239 87.2753L91.3018 91.3945L51.9483 107.809ZM94.5866 102.489L54.0336 119.404V111.461L94.5866 94.5456V102.489Z" fill="#FF0000"/>
<path d="M46.745 17.0063C46.1836 16.6158 45.4686 16.5078 44.8219 16.7197L6.40327 29.1831C5.53031 29.4677 4.94336 30.2591 4.94336 31.1544V56.0813C4.94336 56.7481 5.27205 57.3755 5.82912 57.766C6.19837 58.0256 6.63591 58.1586 7.07773 58.1586C7.30397 58.1586 7.53235 58.1233 7.75219 58.0526L46.1708 45.5892C47.0438 45.3046 47.6307 44.5132 47.6307 43.6179V18.691C47.6307 18.0242 47.302 17.3969 46.745 17.0063ZM43.362 42.1223L9.2121 53.2002V32.6521L43.362 21.5742V42.1223Z" fill="#FF0000"/>
<path d="M35.4478 29.6838L27.8431 37.0871L22.6928 35.4149C22.0674 35.2155 21.3823 35.3027 20.8338 35.658L14.4307 39.8124L16.7977 43.2689L22.3321 39.6774L27.7449 41.4326C28.5111 41.6819 29.3585 41.4846 29.9283 40.93L38.4658 32.621L35.4478 29.6838Z" fill="#FF0000"/>
</svg>
