<svg width="130" height="130" viewBox="0 0 130 130" fill="none" xmlns="http://www.w3.org/2000/svg">
<path d="M21.6666 23.8334C26.4332 23.8334 30.3332 19.9334 30.3332 15.1668C30.3332 10.4003 26.4334 6.5 21.6666 6.5C16.9 6.5 13 10.4 13 15.1666C13 19.9332 16.9 23.8334 21.6666 23.8334ZM21.6666 10.8334C24.05 10.8334 26 12.7834 26 15.1668C26 17.5503 24.05 19.5 21.6666 19.5C19.2832 19.5 17.3332 17.55 17.3332 15.1666C17.3332 12.7832 19.2834 10.8334 21.6666 10.8334Z" fill="#FF0000"/>
<path d="M43.3331 23.8334C48.0997 23.8334 51.9997 19.9334 51.9997 15.1668C51.9997 10.4003 48.0997 6.5 43.3331 6.5C38.5665 6.5 34.6665 10.4 34.6665 15.1666C34.6665 19.9332 38.5663 23.8334 43.3331 23.8334ZM43.3331 10.8334C45.7165 10.8334 47.6665 12.7834 47.6665 15.1668C47.6665 17.5503 45.7163 19.5 43.3331 19.5C40.9499 19.5 38.9997 17.55 38.9997 15.1666C38.9997 12.7832 40.9497 10.8334 43.3331 10.8334Z" fill="#FF0000"/>
<path d="M65.0001 23.8334C69.7667 23.8334 73.6667 19.9334 73.6667 15.1668C73.6667 10.4003 69.7667 6.5 65.0001 6.5C60.2335 6.5 56.3335 10.4 56.3335 15.1666C56.3335 19.9332 60.2335 23.8334 65.0001 23.8334ZM65.0001 10.8334C67.3835 10.8334 69.3335 12.7834 69.3335 15.1668C69.3335 17.5503 67.3835 19.5 65.0001 19.5C62.6167 19.5 60.6667 17.55 60.6667 15.1666C60.6667 12.7832 62.6167 10.8334 65.0001 10.8334Z" fill="#FF0000"/>
<path d="M86.6666 23.8334C91.4332 23.8334 95.3332 19.9334 95.3332 15.1668C95.3332 10.4003 91.4334 6.5 86.6666 6.5C81.9 6.5 78 10.4 78 15.1666C78 19.9332 81.9 23.8334 86.6666 23.8334ZM86.6666 10.8334C89.05 10.8334 91 12.7834 91 15.1668C91 17.5503 89.05 19.5 86.6666 19.5C84.2832 19.5 82.3332 17.55 82.3332 15.1666C82.3332 12.7832 84.2834 10.8334 86.6666 10.8334Z" fill="#FF0000"/>
<path d="M108.333 23.8334C113.1 23.8334 117 19.9334 117 15.1668C117 10.4003 113.1 6.5 108.333 6.5C103.567 6.5 99.6665 10.4 99.6665 15.1666C99.6665 19.9332 103.566 23.8334 108.333 23.8334ZM108.333 10.8334C110.716 10.8334 112.667 12.7834 112.667 15.1668C112.667 17.5503 110.716 19.5 108.333 19.5C105.95 19.5 104 17.55 104 15.1666C104 12.7832 105.95 10.8334 108.333 10.8334Z" fill="#FF0000"/>
<path d="M21.6666 28.1666C16.9 28.1666 13 32.0666 13 36.8331C13 41.5997 16.9 45.4997 21.6666 45.4997C26.4332 45.4997 30.3332 41.5997 30.3332 36.8331C30.3334 32.0666 26.4334 28.1666 21.6666 28.1666ZM21.6666 41.1666C19.2832 41.1666 17.3332 39.2166 17.3332 36.8331C17.3332 34.4497 19.2832 32.4997 21.6666 32.4997C24.05 32.4997 26 34.4497 26 36.8331C26 39.2166 24.05 41.1666 21.6666 41.1666Z" fill="#FF0000"/>
<path d="M21.6666 49.8334C16.9 49.8334 13 53.7334 13 58.5C13 63.2666 16.9 67.1666 21.6666 67.1666C26.4332 67.1666 30.3332 63.2666 30.3332 58.5C30.3334 53.7334 26.4334 49.8334 21.6666 49.8334ZM21.6666 62.8334C19.2832 62.8334 17.3332 60.8834 17.3332 58.5C17.3332 56.1166 19.2832 54.1666 21.6666 54.1666C24.05 54.1666 26 56.1166 26 58.5C26 60.8834 24.05 62.8334 21.6666 62.8334Z" fill="#FF0000"/>
<path d="M108.333 45.5C113.1 45.5 117 41.6 117 36.8335C117 32.0669 113.1 28.1669 108.333 28.1669C103.567 28.1669 99.6665 32.0669 99.6665 36.8335C99.6663 41.6 103.566 45.5 108.333 45.5ZM108.333 32.5C110.716 32.5 112.667 34.45 112.667 36.8335C112.667 39.2169 110.716 41.1669 108.333 41.1669C105.95 41.1669 104 39.2169 104 36.8335C104 34.45 105.95 32.5 108.333 32.5Z" fill="#FF0000"/>
<path d="M108.333 67.1666C113.1 67.1666 117 63.2666 117 58.5C117 53.7334 113.1 49.8334 108.333 49.8334C103.567 49.8334 99.6665 53.7334 99.6665 58.5C99.6663 63.2666 103.566 67.1666 108.333 67.1666ZM108.333 54.1666C110.716 54.1666 112.667 56.1166 112.667 58.5C112.667 60.8834 110.716 62.8334 108.333 62.8334C105.95 62.8334 104 60.8834 104 58.5C104 56.1166 105.95 54.1666 108.333 54.1666Z" fill="#FF0000"/>
<path d="M65.0001 56.3334C61.7501 56.3334 58.7167 57.6334 56.5501 60.0169C54.3835 62.4003 53.5167 65.4334 53.7335 68.6834C53.9501 69.7669 54.8169 70.6334 55.9001 70.6334C57.2001 70.4169 58.0667 69.55 58.0667 68.25C57.8501 66.0834 58.5001 64.35 59.8001 62.8334C61.1001 61.5334 63.0501 60.6669 65.0001 60.6669C66.3001 60.6669 67.1667 59.8003 67.1667 58.5003C67.1667 57.2003 66.3001 56.3334 65.0001 56.3334Z" fill="#FF0000"/>
<path d="M123.5 69.6094V13C123.5 5.85 117.65 0 110.5 0H19.5C12.35 0 6.5 5.85 6.5 13V69.6094C2.77291 70.5778 0 73.9809 0 78C0 82.7666 3.9 86.6666 8.66658 86.6666V123.5C8.66658 127.183 11.4832 130 15.1666 130C18.85 130 21.6666 127.183 21.6666 123.5V86.6666H46.6466L47.6666 97.7166V106.167V127.833C47.6666 129.133 48.5332 130 49.8332 130C51.1332 130 51.9998 129.133 51.9998 127.833V108.333H77.9998V127.833C77.9998 129.133 78.8663 130 80.1663 130C81.4663 130 82.3329 129.133 82.3329 127.833V106.167V97.7166L83.3529 86.6666H108.333V123.5C108.333 127.183 111.15 130 114.833 130C118.516 130 121.333 127.183 121.333 123.5V86.6666C126.1 86.6666 129.999 82.7666 129.999 78C130 73.9809 127.227 70.5778 123.5 69.6094ZM93.1666 69.3334H84.9443C84.9674 68.9838 84.9817 68.6347 84.9865 68.2855C85.1173 63.0338 83.1891 58.0318 79.7375 54.1717C79.736 54.1701 79.7347 54.1684 79.7332 54.1666C77.8916 52.1082 75.6166 50.4832 73.0978 49.3728C70.5791 48.2625 67.8166 47.6666 65 47.6666C62.1834 47.6666 59.4209 48.2625 56.9022 49.3728C54.3834 50.4832 52.1084 52.1082 50.2668 54.1666L50.2666 54.1668C46.8089 57.8167 45.0582 62.4891 45.0069 67.4276C44.994 68.0588 45.0125 68.6946 45.0554 69.3332H36.8337V30.3332H93.1671V69.3334H93.1666ZM49.8334 73.8832L49.6168 71.2834L49.4003 69.1168C49.1837 64.7834 50.4837 60.4503 53.5168 57.2003C56.3334 53.9503 60.6668 52.0003 65.0003 52.0003C69.3337 52.0003 73.6668 53.9503 76.4837 57.2003C78.569 59.4346 79.9376 62.1811 80.4484 65.0876C80.5878 65.8803 80.6632 66.6849 80.6721 67.4941C80.678 68.0337 80.6544 68.5753 80.6003 69.1171V69.1173L80.4809 70.3102C80.2854 70.5964 80.1668 70.9279 80.1668 71.2839L79.0834 84.2839C79.0834 84.5063 79.1108 84.728 79.1614 84.9418L78.2166 95.3339H51.7834L49.8334 73.8832ZM10.8334 13C10.8334 8.23342 14.7334 4.33342 19.5 4.33342H110.5C115.267 4.33342 119.167 8.23342 119.167 13V69.3334H97.5V28.1666C97.5 26.8666 96.6334 26 95.3334 26H34.6666C33.3666 26 32.5 26.8666 32.5 28.1666V69.3332H10.8334V13ZM17.3334 123.5C17.3334 124.8 16.4668 125.667 15.1668 125.667C13.8668 125.667 13 124.8 13 123.5V86.6666H17.3334V123.5ZM19.5 82.3334H10.8334H8.66684C6.28342 82.3334 4.33342 80.3834 4.33342 78C4.33342 75.6166 6.28342 73.6666 8.66684 73.6666H34.6668H45.4469L46.247 82.3332H19.5V82.3334ZM52 99.6666H78V104H52V99.6666ZM117 123.5C117 124.8 116.133 125.667 114.833 125.667C113.533 125.667 112.667 124.8 112.667 123.5V86.6666H117V123.5ZM121.333 82.3334H119.167H110.5H83.7533L84.5533 73.6668H95.3334H121.333C123.717 73.6668 125.667 75.6168 125.667 78.0003C125.667 80.3837 123.717 82.3334 121.333 82.3334Z" fill="#FF0000"/>
</svg>
