<svg width="156" height="151" viewBox="0 0 156 151" fill="none" xmlns="http://www.w3.org/2000/svg">
<path d="M4.28669 52.1249C5.46661 52.6752 6.80188 52.9532 8.23084 52.9532C9.04908 52.9532 9.89815 52.8625 10.7674 52.6787C15.9863 51.5757 18.9296 47.69 17.9264 43.2288C17.9264 43.2276 17.9264 43.2276 17.9264 43.2276L12.1857 17.7284L36.3225 12.6272L40.5773 31.5247C39.2183 31.2754 37.6886 31.3098 36.0391 31.658C30.7039 32.7851 27.7867 36.5133 28.7817 40.9332C29.6201 44.658 32.7887 46.9076 36.849 46.9076C37.6518 46.9076 38.4914 46.8191 39.3535 46.6376C44.5725 45.5347 47.5169 41.6479 46.5125 37.1866C46.5125 37.1866 46.5125 37.1866 46.5125 37.1854L38.8626 3.2049C38.3883 1.09548 36.2288 -0.24646 34.0492 0.214257L8.91507 5.52573C7.86085 5.74862 6.9596 6.35525 6.37616 7.23417C5.79154 8.11425 5.59706 9.16207 5.82711 10.1835L11.9912 37.5669C10.6322 37.3176 9.10125 37.3509 7.45292 37.699C5.06817 38.2034 3.11151 39.234 1.7964 40.6782C0.235818 42.3923 -0.333392 44.6282 0.195499 46.9743C0.720831 49.3077 2.1735 51.1368 4.28669 52.1249ZM38.3823 42.3269C37.3471 42.5452 33.9128 43.0254 33.231 39.9934C32.6274 37.3141 35.3394 36.3214 37.0103 35.9687C37.5712 35.8504 38.1736 35.7677 38.7606 35.7677C40.2536 35.7677 41.6517 36.2996 42.0632 38.1253V38.1264C42.7463 41.1573 39.4188 42.1074 38.3823 42.3269ZM34.5224 4.62957L35.3525 8.31646L11.2156 13.4177L10.3855 9.73193L34.5224 4.62957ZM5.21166 43.5976C5.87218 42.8726 7.01297 42.3085 8.42413 42.0098C8.98504 41.8914 9.58745 41.8087 10.1744 41.8087C11.6674 41.8087 13.0656 42.3418 13.477 44.1663V44.1674C14.1589 47.1994 10.8326 48.1496 9.79616 48.3679C8.43599 48.6551 7.18136 48.5781 6.26351 48.1496C5.40376 47.7486 4.87369 47.0558 4.64482 46.0344C4.42069 45.0418 4.60094 44.2674 5.21166 43.5976Z" fill="#414042"/>
<path d="M155.087 110.491C154.652 109.533 153.857 108.798 152.851 108.419L128.87 99.3904C126.791 98.608 124.445 99.6098 123.638 101.623L113.156 127.764C112.151 126.805 110.852 126.007 109.306 125.425C107.03 124.569 104.812 124.381 102.891 124.88C100.613 125.473 98.8654 127.033 97.9677 129.272C97.0748 131.498 97.2432 133.801 98.4409 135.754C99.4927 137.469 101.251 138.829 103.527 139.685C104.897 140.201 106.241 140.448 107.509 140.448C110.851 140.448 113.646 138.726 114.884 135.64L124.639 111.313L147.666 119.981L140.428 138.03C139.423 137.072 138.125 136.274 136.578 135.692C131.488 133.775 126.931 135.322 125.24 139.538C124.347 141.765 124.515 144.066 125.714 146.021C126.766 147.736 128.525 149.095 130.799 149.952C132.169 150.467 133.515 150.715 134.783 150.715C138.124 150.715 140.919 148.992 142.156 145.906L155.155 113.488C155.546 112.512 155.522 111.448 155.087 110.491ZM105.175 135.572C103.877 135.084 102.875 134.349 102.355 133.501C101.868 132.705 101.821 131.844 102.212 130.87C102.591 129.922 103.183 129.374 104.074 129.142C104.386 129.06 104.731 129.02 105.099 129.02C105.869 129.02 106.747 129.195 107.656 129.538C108.985 130.038 109.998 130.751 110.509 131.548C110.984 132.286 111.024 133.079 110.639 134.042C109.479 136.934 106.164 135.945 105.175 135.572ZM126.287 107.2L127.697 103.683L150.725 112.351L149.315 115.868L126.287 107.2ZM132.448 145.839C131.149 145.351 130.148 144.614 129.629 143.766C129.14 142.971 129.094 142.111 129.484 141.137C130.058 139.706 131.195 139.272 132.366 139.272C133.286 139.272 134.228 139.541 134.928 139.805C136.258 140.305 137.27 141.018 137.782 141.814C138.256 142.553 138.296 143.346 137.911 144.308C136.751 147.201 133.437 146.211 132.448 145.839Z" fill="#414042"/>
<path d="M66.8687 140.626C52.8686 150.484 31.5623 147.259 17.3072 133.125C8.99318 124.882 4.34582 114.063 4.56046 103.445C4.73122 94.9602 8.05635 87.3257 13.9228 81.9464C18.1005 78.1205 23.4286 75.54 29.3317 74.483C37.3529 73.048 44.4549 69.2956 49.8695 63.6326C50.7245 62.7388 50.67 61.3428 49.7474 60.5156C48.8248 59.6861 47.3852 59.7401 46.5302 60.6339C41.7856 65.595 35.5539 68.8832 28.5052 70.1447C21.7364 71.3557 15.6126 74.3279 10.7933 78.7409C4.03275 84.9405 0.202448 93.6826 0.00796766 103.359C-0.230389 115.153 4.88894 127.125 14.0508 136.209C23.6325 145.709 36.1563 150.715 48.0599 150.715C55.8142 150.715 63.3076 148.588 69.5452 144.196C70.5627 143.48 70.788 142.1 70.0492 141.115C69.3092 140.129 67.885 139.911 66.8687 140.626Z" fill="#414042"/>
<path d="M106.188 96.2689C110.947 91.6571 113.221 85.7161 112.762 79.0868C112.399 73.8259 110.338 68.2363 106.789 62.8238L121.319 48.746C122.209 47.8843 122.209 46.4872 121.321 45.6267C120.431 44.765 118.989 44.765 118.101 45.6267L77.8129 84.659C76.946 82.5772 75.6499 80.6654 73.9624 79.0305C72.275 77.3956 70.3029 76.1386 68.1541 75.2999L115.576 29.351L125.238 38.7113L124.968 38.9721C124.079 39.8327 124.079 41.2298 124.968 42.0915C125.413 42.5223 125.995 42.7372 126.579 42.7372C127.161 42.7372 127.744 42.5223 128.188 42.0915L128.764 41.5342C129.126 41.6445 129.504 41.7031 129.888 41.7031C129.928 41.7031 129.967 41.702 130.006 41.7008C131.043 41.6698 132.031 41.2183 132.717 40.4634L135.133 37.8048L137.725 40.3152C138.169 40.7461 138.753 40.9621 139.335 40.9621C139.917 40.9621 140.501 40.7461 140.945 40.3152C141.835 39.4535 141.835 38.0576 140.945 37.1959L138.149 34.4867L141.952 30.3024L144.658 32.9242C145.103 33.355 145.686 33.5699 146.269 33.5699C146.851 33.5699 147.434 33.355 147.879 32.9242C148.768 32.0625 148.768 30.6654 147.879 29.8037L144.968 26.9843L148.742 22.8321L150.703 24.7324C151.147 25.1632 151.731 25.3781 152.313 25.3781C152.895 25.3781 153.479 25.1632 153.923 24.7324C154.813 23.8707 154.813 22.4736 153.923 21.6119L151.757 19.514L154.489 16.5084C155.801 15.0653 155.729 12.8697 154.327 11.5094L143.679 1.19325C142.275 -0.16708 140.009 -0.236015 138.519 1.03469L135.416 3.68296L133.248 1.58388C132.359 0.723335 130.917 0.723335 130.028 1.58503C129.139 2.44672 129.14 3.84381 130.03 4.7055L131.991 6.60467L127.706 10.2594L124.769 7.41466C123.881 6.55297 122.439 6.55297 121.55 7.41466C120.66 8.27521 120.66 9.6723 121.55 10.534L124.283 13.1811L119.963 16.8669L117.168 14.1588C116.28 13.2971 114.838 13.2971 113.948 14.1588C113.059 15.0205 113.059 16.4176 113.948 17.2782L116.539 19.7886L113.794 22.1301C113.016 22.7941 112.551 23.7512 112.518 24.7565C112.505 25.1529 112.562 25.5458 112.678 25.9204L90.715 47.2007C77.9149 39.2318 65.0247 39.1847 56.751 47.2019C54.6212 49.2607 52.9906 51.2714 51.7656 53.3475C51.1407 54.4056 51.5202 55.7533 52.6111 56.3576C52.9681 56.5552 53.3559 56.6495 53.7401 56.6495C54.5299 56.6495 55.2983 56.2496 55.7181 55.5373C56.7403 53.807 58.1289 52.102 59.9694 50.3223C69.0198 41.5526 81.4191 46.91 87.4053 50.4074L62.9233 74.128C62.4917 74.097 62.0576 74.0763 61.6201 74.0763C56.9585 74.0763 52.5744 75.8353 49.2777 79.0305C45.9798 82.2245 44.1643 86.472 44.1643 90.9896C44.1643 95.5072 45.9798 99.7547 49.2777 102.949C52.5744 106.143 56.9585 107.903 61.6201 107.903C66.2828 107.903 70.6669 106.143 73.9636 102.949C77.2603 99.7547 79.0758 95.5072 79.0758 90.9896C79.0758 90.5657 79.0545 90.1452 79.0225 89.7269L103.476 66.035C107.048 71.8658 112.436 83.9766 102.967 93.1507C101.477 94.5984 99.7737 95.8346 97.9072 96.825C87.5547 102.311 80.7064 111.34 78.6252 122.25C77.7583 126.804 75.9464 130.922 73.2379 134.49C72.4932 135.472 72.7102 136.853 73.7229 137.575C74.1296 137.865 74.6016 138.004 75.07 138.004C75.7697 138.004 76.4598 137.692 76.9057 137.104C80.0257 132.993 82.1104 128.265 83.103 123.05C84.9304 113.472 90.964 105.533 100.093 100.695C102.34 99.502 104.391 98.013 106.188 96.2689ZM140.977 4.8158L150.586 14.1255L129.849 36.942L117.43 24.907L140.977 4.8158ZM70.7428 99.8283C68.3059 102.189 65.0662 103.49 61.6201 103.49C58.174 103.49 54.9342 102.189 52.4973 99.8283C50.0604 97.4672 48.718 94.3284 48.718 90.9896C48.718 87.6497 50.0604 84.5108 52.4973 82.1498C54.933 79.7888 58.174 78.4882 61.6201 78.4882C65.0662 78.4882 68.3059 79.7888 70.7428 82.1498C73.1786 84.5108 74.521 87.6497 74.521 90.9896C74.521 94.3284 73.1798 97.4672 70.7428 99.8283Z" fill="#414042"/>
<path d="M19.3694 98.601C16.2968 101.578 16.2968 106.423 19.3694 109.4L42.618 131.926C44.1549 133.413 46.1732 134.158 48.1903 134.158C50.2086 134.158 52.227 133.413 53.7638 131.924C56.8364 128.948 56.8364 124.104 53.7638 121.126L30.5152 98.5998C29.0269 97.1579 27.0477 96.364 24.9429 96.364C22.838 96.364 20.8588 97.1591 19.3694 98.601ZM50.5431 124.246C51.8404 125.503 51.8404 127.548 50.5431 128.805C49.2469 130.062 47.1361 130.063 45.8376 128.805L22.5901 106.28C21.2928 105.023 21.2928 102.977 22.5901 101.72C23.2174 101.113 24.0535 100.776 24.9429 100.776C25.8311 100.776 26.6671 101.111 27.2956 101.72L50.5431 124.246Z" fill="#414042"/>
<path d="M114.447 46.694C115.03 46.694 115.613 46.4791 116.058 46.0483C116.946 45.1866 116.946 43.7895 116.058 42.929L111.201 38.2218C110.311 37.3613 108.869 37.3613 107.98 38.2218C107.09 39.0835 107.09 40.4806 107.98 41.3423L112.837 46.0483C113.282 46.4791 113.865 46.694 114.447 46.694Z" fill="#414042"/>
<path d="M107.718 53.214C108.301 53.214 108.883 52.9991 109.328 52.5683C110.218 51.7066 110.218 50.3096 109.328 49.449L104.471 44.742C103.581 43.8814 102.141 43.8814 101.251 44.742C100.362 45.6036 100.362 47.0007 101.251 47.8624L106.109 52.5683C106.553 52.9991 107.135 53.214 107.718 53.214Z" fill="#414042"/>
<path d="M100.989 59.7343C101.572 59.7343 102.154 59.5194 102.598 59.0886C103.488 58.2269 103.488 56.8298 102.598 55.9681L97.7412 51.2621C96.8518 50.4004 95.411 50.4004 94.5217 51.2621C93.6323 52.1238 93.6323 53.5209 94.5217 54.3814L99.3789 59.0886C99.8236 59.5194 100.406 59.7343 100.989 59.7343Z" fill="#414042"/>
<path d="M94.2595 66.2544C94.8417 66.2544 95.4252 66.0395 95.8699 65.6087C96.7593 64.747 96.7593 63.3499 95.8699 62.4882L91.0126 57.7821C90.1232 56.9204 88.6812 56.9204 87.793 57.7821C86.9036 58.6438 86.9036 60.0409 87.793 60.9015L92.6503 65.6087C93.095 66.0395 93.6772 66.2544 94.2595 66.2544Z" fill="#414042"/>
<path d="M81.0633 64.3025C80.1739 65.1642 80.1739 66.5613 81.0633 67.423L85.9205 72.129C86.3652 72.5598 86.9475 72.7747 87.5309 72.7747C88.1132 72.7747 88.6955 72.5598 89.1401 72.129C90.0295 71.2673 90.0295 69.8702 89.1401 69.0085L84.2829 64.3025C83.3935 63.4408 81.9527 63.4408 81.0633 64.3025Z" fill="#414042"/>
<path d="M126.78 22.6366C125.891 21.7749 124.45 21.7749 123.561 22.6366C122.671 23.4983 122.671 24.8943 123.561 25.756C124.45 26.6176 125.891 26.6176 126.78 25.756C127.67 24.8943 127.67 23.4983 126.78 22.6366Z" fill="#414042"/>
<path d="M132.241 27.8814C131.352 27.0197 129.91 27.0197 129.02 27.8814C128.132 28.7419 128.132 30.1389 129.02 31.0006C129.91 31.8623 131.352 31.8623 132.241 31.0006C133.129 30.1389 133.129 28.7419 132.241 27.8814Z" fill="#414042"/>
<path d="M133.613 16.0062C132.724 15.1444 131.282 15.1444 130.394 16.0062C129.504 16.8679 129.504 18.2651 130.394 19.1257C131.282 19.9874 132.724 19.9874 133.613 19.1257C134.503 18.2651 134.503 16.8679 133.613 16.0062Z" fill="#414042"/>
<path d="M139.078 21.2567C138.188 20.3951 136.746 20.3951 135.858 21.2567C134.969 22.1184 134.969 23.5154 135.858 24.376C136.746 25.2376 138.188 25.2376 139.078 24.376C139.967 23.5154 139.967 22.1184 139.078 21.2567Z" fill="#414042"/>
<path d="M140.45 9.3827C139.56 8.52103 138.12 8.52103 137.23 9.3827C136.341 10.2444 136.341 11.6403 137.23 12.5019C138.12 13.3636 139.56 13.3636 140.45 12.5019C141.339 11.6403 141.339 10.2444 140.45 9.3827Z" fill="#414042"/>
<path d="M145.913 14.632C145.024 13.7703 143.582 13.7703 142.693 14.632C141.804 15.4926 141.804 16.8897 142.693 17.7514C143.582 18.6131 145.024 18.6131 145.913 17.7514C146.802 16.8897 146.802 15.4926 145.913 14.632Z" fill="#414042"/>
</svg>
