<svg width="151" height="50" viewBox="0 0 151 50" fill="none" xmlns="http://www.w3.org/2000/svg">
<path d="M0.392578 45.734V43.5322C0.392578 42.0049 1.25664 41.1577 2.55929 41.1577C3.90132 41.1577 4.75225 42.0103 4.79053 43.5322H4.01725C3.97788 42.4118 3.46272 41.8905 2.55929 41.8905C1.69523 41.8905 1.16586 42.4129 1.16586 43.5322V45.734C1.16586 46.8543 1.69523 47.3756 2.55929 47.3756C3.46272 47.3756 3.991 46.8543 4.03038 45.734H4.80366C4.76538 47.2612 3.90132 48.1139 2.55929 48.1139C1.25664 48.1139 0.392578 47.2612 0.392578 45.734Z" fill="white"/>
<path d="M11.7367 41.2175V41.9791C11.4695 41.8882 11.187 41.8437 10.9029 41.8479C9.95556 41.8479 9.33612 42.5621 9.33612 43.7514V47.5342H8.58594V41.2891H9.20538L9.33184 42.0749V42.087C9.50034 41.7961 9.75166 41.5551 10.0576 41.3912C10.3635 41.2273 10.7119 41.1468 11.0637 41.159C11.2897 41.1522 11.5158 41.1718 11.7367 41.2175Z" fill="white"/>
<path d="M19.2978 45.938C19.1979 47.3411 18.3828 48.1139 17.0046 48.1139C15.7294 48.1139 14.8867 47.2612 14.8867 45.734V43.5322C14.8867 42.0049 15.7368 41.1577 17.012 41.1577C18.3287 41.1577 19.2053 42.0103 19.2053 43.5322V45.0087H15.6391V45.734C15.6391 46.8543 16.1704 47.3756 17.0301 47.3756C17.9865 47.3756 18.4594 46.918 18.5592 45.938H19.2978ZM15.638 43.5322V44.3093H18.47V43.5322C18.47 42.4118 17.9312 41.8905 17.029 41.8905C16.1651 41.8905 15.6391 42.4118 15.6391 43.5322H15.638Z" fill="white"/>
<path d="M27.4892 43.3647V47.9604H26.8346L26.7702 47.3399C26.5978 47.5872 26.3647 47.7877 26.0925 47.9228C25.8204 48.0579 25.5179 48.1233 25.2133 48.1128C23.9782 48.1128 23.0781 47.3613 23.0781 46.0732C23.0781 44.785 23.9139 44.0861 25.3944 44.0861H26.732V43.3733C26.732 42.3986 26.2683 41.879 25.3944 41.879C24.6219 41.879 24.095 42.3084 24.0426 43.0438H23.2789C23.3302 41.9048 24.1659 41.1577 25.414 41.1577C26.7015 41.1619 27.4892 42.01 27.4892 43.3647ZM26.7255 46.086V44.7818H25.3617C24.371 44.7818 23.8429 45.238 23.8429 46.086C23.8429 46.9599 24.4474 47.3742 25.3224 47.3742C26.1974 47.3742 26.7298 46.8461 26.7298 46.086H26.7255Z" fill="white"/>
<path d="M34.4206 47.4161V48.1138H33.9825C32.5815 48.1138 31.808 47.3654 31.808 46.1053V42.1939H30.6396V41.5078H31.808V39.9982H32.6743V41.5068H34.251V42.1928H32.6694V46.1042C32.6694 46.9647 33.0778 47.4129 33.9825 47.4129L34.4206 47.4161Z" fill="white"/>
<path d="M37.5726 39.9611C37.5726 39.8539 37.6095 39.749 37.6787 39.6597C37.7478 39.5705 37.8462 39.501 37.9612 39.4599C38.0762 39.4189 38.2028 39.4081 38.3249 39.4291C38.447 39.45 38.5592 39.5017 38.6472 39.5775C38.7353 39.6534 38.7952 39.7501 38.8195 39.8553C38.8438 39.9605 38.8314 40.0696 38.7837 40.1688C38.7361 40.2679 38.6554 40.3526 38.5519 40.4122C38.4483 40.4718 38.3266 40.5037 38.2021 40.5037C38.118 40.5085 38.0337 40.4977 37.9548 40.4722C37.8759 40.4466 37.8042 40.4068 37.7446 40.3554C37.685 40.3041 37.6388 40.2423 37.6091 40.1743C37.5795 40.1063 37.567 40.0336 37.5726 39.9611ZM37.8217 41.6002H38.6003V47.5342H37.8217V41.6002Z" fill="white"/>
<path d="M46.3945 41.7374L44.5769 47.5342H43.7958L41.9834 41.7374H42.7396L43.7524 45.1269C43.8869 45.6016 44.0814 46.3638 44.1662 46.684H44.2158C44.3017 46.3638 44.4962 45.6016 44.6296 45.1269L45.6424 41.7374H46.3945Z" fill="white"/>
<path d="M53.956 45.938C53.8561 47.3411 53.0411 48.1139 51.6628 48.1139C50.3876 48.1139 49.5449 47.2612 49.5449 45.734V43.5322C49.5449 42.0049 50.3951 41.1577 51.6702 41.1577C52.9869 41.1577 53.8636 42.0103 53.8636 43.5322V45.0087H50.2962V45.734C50.2962 46.8543 50.8276 47.3756 51.6873 47.3756C52.6436 47.3756 53.1165 46.918 53.2164 45.938H53.956ZM50.2962 43.5322V44.3093H53.1282V43.5322C53.1282 42.4118 52.5895 41.8905 51.6873 41.8905C50.8233 41.8905 50.2962 42.4118 50.2962 43.5322Z" fill="white"/>
<path d="M70.3412 41.7374L68.6807 47.5342H67.8516L67.0343 44.6522C66.8438 43.9893 66.6263 43.0604 66.5743 42.6859H66.5494C66.4985 43.0604 66.2821 43.9893 66.0894 44.6522L65.2689 47.5342H64.4398L62.7793 41.7374H63.5706L64.4029 44.8956C64.5686 45.4921 64.7601 46.3938 64.8359 46.7177H64.8619C64.9377 46.3535 65.1552 45.3703 65.3468 44.6746L66.1543 41.8488H66.9716L67.7758 44.6756C67.9663 45.3713 68.1839 46.3544 68.2607 46.7187H68.2856C68.3625 46.3984 68.553 45.493 68.7186 44.8966L69.5478 41.7383L70.3412 41.7374Z" fill="white"/>
<path d="M73.4902 45.706V43.5645C73.4902 42.0054 74.3718 41.1577 75.6958 41.1577C77.0197 41.1577 77.9013 42.0065 77.9013 43.5645V45.706C77.9013 47.265 77.0187 48.1139 75.6958 48.1139C74.3729 48.1139 73.4902 47.265 73.4902 45.706ZM77.1448 45.706V43.5645C77.1448 42.4116 76.5902 41.8915 75.6958 41.8915C74.8014 41.8915 74.2468 42.4116 74.2468 43.5645V45.706C74.2468 46.8589 74.8014 47.3789 75.6958 47.3789C76.5902 47.3789 77.1448 46.8589 77.1448 45.706Z" fill="white"/>
<path d="M84.8334 41.2174V41.979C84.5662 41.8881 84.2837 41.8436 83.9996 41.8478C83.0522 41.8478 82.4328 42.562 82.4328 43.7514V47.5342H81.6826V41.289H82.3021L82.4382 42.0748V42.0869C82.6067 41.796 82.858 41.555 83.1639 41.3911C83.4698 41.2272 83.8182 41.1467 84.17 41.1588C84.3928 41.1528 84.6156 41.1725 84.8334 41.2174Z" fill="white"/>
<path d="M89.9812 44.5386L89.343 45.1809V47.5342H88.6143V39.4186H89.343V44.2698L91.7854 41.6485H92.7067L90.4726 44.0237L93.0253 47.5304H92.1539L89.9812 44.5386Z" fill="white"/>
<path d="M96.1758 45.9814H96.9528C96.9528 46.8558 97.5155 47.378 98.4579 47.378C99.3093 47.378 99.8065 46.9601 99.8065 46.2499C99.8065 44.6288 96.2723 45.224 96.2723 42.9432C96.2723 41.8689 97.0971 41.1577 98.3402 41.1577C99.6234 41.1577 100.474 41.9688 100.474 43.1989H99.6966C99.6966 42.3759 99.1994 41.8807 98.3347 41.8807C97.5233 41.8807 97.0527 42.2857 97.0527 42.97C97.0527 44.5289 100.587 43.9369 100.587 46.2768C100.587 47.379 99.7366 48.1139 98.4535 48.1139C97.0915 48.1096 96.1758 47.2609 96.1758 45.9814Z" fill="white"/>
<path d="M108.149 43.9611V47.5342H107.372V44.0175C107.372 42.6534 106.965 42.1124 106.101 42.1124C105.145 42.1124 104.516 42.7997 104.516 43.9611V47.5342H103.738V39.4186H104.516V42.3609C104.689 42.0872 104.946 41.86 105.26 41.7048C105.574 41.5495 105.931 41.4722 106.293 41.4815C107.482 41.4815 108.149 42.2252 108.149 43.9611Z" fill="white"/>
<path d="M111.93 45.706V43.5645C111.93 42.0054 112.937 41.1577 114.45 41.1577C115.963 41.1577 116.971 42.0065 116.971 43.5645V45.706C116.971 47.265 115.962 48.1139 114.45 48.1139C112.938 48.1139 111.93 47.265 111.93 45.706ZM116.106 45.706V43.5645C116.106 42.4116 115.472 41.8915 114.45 41.8915C113.428 41.8915 112.794 42.4116 112.794 43.5645V45.706C112.794 46.8589 113.428 47.3789 114.45 47.3789C115.472 47.3789 116.111 46.8589 116.111 45.706H116.106Z" fill="white"/>
<path d="M125.163 43.5965V45.4289C125.163 47.0061 124.366 47.8189 123.067 47.8189C122.763 47.8256 122.462 47.7637 122.19 47.6384C121.917 47.5131 121.68 47.3281 121.498 47.0987V49.8529H120.752V41.3032H121.369L121.472 41.8979C121.655 41.6625 121.896 41.4723 122.174 41.3435C122.451 41.2147 122.758 41.1511 123.068 41.1582C124.288 41.1582 125.163 41.9823 125.163 43.5965ZM124.391 43.5965C124.391 42.3465 123.838 41.8249 122.899 41.8249C122.127 41.8249 121.497 42.3825 121.497 43.5739V45.4258C121.497 46.4444 122.05 47.1491 122.899 47.1491C123.889 47.1491 124.391 46.6347 124.391 45.4258V43.5965Z" fill="white"/>
<path d="M16.7763 35.3608H13.0849L4.376 18.3693V35.3608H1.02246V0H4.376V15.8838L12.2885 0H15.9315V0.201584L7.3916 17.0338L16.7763 35.3608Z" fill="white"/>
<path d="M23.7084 35.3608H20.5576V0H23.7084V35.3608Z" fill="white"/>
<path d="M43.2428 2.77984H37.3877V35.3608H34.024V2.77984H28.1191V0H43.2428V2.77984Z" fill="white"/>
<path d="M62.778 32.8496C62.778 33.5886 62.5209 34.1905 62.0068 34.6554C61.4926 35.1203 60.8415 35.3554 60.0534 35.3608H50.3359C49.5471 35.3608 48.9042 35.1257 48.4073 34.6554C47.9103 34.1851 47.6593 33.5832 47.6543 32.8496V2.51224C47.6543 1.77325 47.9053 1.17097 48.4073 0.705402C48.9092 0.239837 49.5521 0.00470268 50.3359 0H60.0534C60.8422 0 61.4933 0.235134 62.0068 0.705402C62.5202 1.17567 62.7773 1.77795 62.778 2.51224V10.7352H59.4026V2.78331H51.0125V32.5785H59.4026V23.8819H62.778V32.8496Z" fill="white"/>
<path d="M84.8276 35.3608H81.4853V18.3693H72.4257V35.3608H69.0791V0H72.4257V15.5451H81.4906V0H84.833L84.8276 35.3608Z" fill="white"/>
<path d="M103.738 35.3608H91.1348V0H103.59V2.77984H94.5431V15.9745H102.782V18.7967H94.5431V32.581H103.738V35.3608Z" fill="white"/>
<path d="M121.83 0V25.5568L111.426 0H108.779V35.3608H112.111V9.35938L122.719 35.3608H125.163V0H121.83Z" fill="white"/>
<path d="M151 0H130.835V19.7093H151V0Z" fill="#FF0000"/>
<path d="M139.295 8.09857C139.178 7.98951 139.036 7.90418 138.879 7.84813C138.723 7.79208 138.555 7.76657 138.386 7.77326H134.334L134.535 3.01715H139.517V1.73901H132.971L132.767 9.05039H138.062V16.6951H134.31V12.7041H132.726V16.8206C132.719 16.9735 132.746 17.126 132.806 17.2689C132.867 17.4118 132.958 17.5421 133.075 17.652C133.195 17.7584 133.337 17.8414 133.494 17.896C133.65 17.9506 133.817 17.9755 133.984 17.9692H138.388C138.556 17.9756 138.724 17.9503 138.881 17.8947C139.038 17.8392 139.18 17.7548 139.3 17.6467C139.419 17.5387 139.512 17.4094 139.573 17.267C139.634 17.1246 139.662 16.9723 139.655 16.8196V8.92288C139.661 8.7704 139.632 8.61842 139.571 8.47655C139.509 8.33467 139.415 8.20597 139.295 8.09857Z" fill="white"/>
<path d="M138.028 18.5437H133.711C133.496 18.5513 133.281 18.5164 133.081 18.4412C132.881 18.3661 132.699 18.2522 132.547 18.1069C132.395 17.9615 132.277 17.7879 132.2 17.5969C132.122 17.4059 132.087 17.2017 132.097 16.9973V12.418H134.412V16.5179H137.33V9.38916H132.129L132.352 1.15936H139.516V3.19336H134.613L134.446 7.35516H138.028C138.243 7.34921 138.457 7.38496 138.657 7.46024C138.857 7.53552 139.039 7.64874 139.192 7.79299C139.344 7.93724 139.464 8.10948 139.544 8.2992C139.624 8.48891 139.662 8.69211 139.656 8.89638V17.0025C139.665 17.2076 139.628 17.4122 139.549 17.6034C139.47 17.7945 139.351 17.9681 139.198 18.1133C139.045 18.2585 138.862 18.3721 138.661 18.4471C138.46 18.522 138.244 18.5567 138.028 18.5488V18.5437ZM132.857 13.1396V17.0025C132.851 17.1121 132.868 17.2218 132.908 17.3248C132.948 17.4279 133.01 17.522 133.089 17.6014C133.171 17.6772 133.269 17.7359 133.376 17.7739C133.483 17.8119 133.597 17.8283 133.711 17.822H138.028C138.144 17.8292 138.259 17.8129 138.367 17.7742C138.475 17.7355 138.573 17.6754 138.655 17.5978C138.737 17.5202 138.8 17.427 138.841 17.3243C138.882 17.2217 138.899 17.1119 138.891 17.0025V8.89638C138.897 8.78739 138.878 8.6785 138.837 8.57671C138.795 8.47492 138.732 8.38249 138.651 8.30538C138.57 8.22827 138.472 8.16819 138.365 8.129C138.258 8.08981 138.143 8.07238 138.028 8.07783H133.659L133.885 2.47172H138.76V1.881H133.093L132.908 8.66752H138.09V17.2396H133.652V13.1396H132.857Z" fill="white"/>
<path d="M149.103 16.8178C149.11 16.9702 149.083 17.1222 149.024 17.2648C148.966 17.4073 148.877 17.5373 148.762 17.6471C148.646 17.7547 148.507 17.8389 148.355 17.8944C148.202 17.9498 148.038 17.9754 147.874 17.9693H143.504C143.338 17.9744 143.172 17.9485 143.017 17.8932C142.861 17.8378 142.72 17.7541 142.6 17.6471C142.481 17.5396 142.388 17.4103 142.326 17.2675C142.264 17.1247 142.236 16.9715 142.241 16.8178V13.2295H143.795V16.6933H147.55V10.6894H143.408C143.244 10.6956 143.08 10.6702 142.927 10.6149C142.775 10.5597 142.636 10.4756 142.52 10.3682C142.405 10.2585 142.316 10.1285 142.257 9.98594C142.199 9.84342 142.171 9.69135 142.178 9.53887V2.89048C142.171 2.738 142.199 2.58593 142.257 2.44342C142.316 2.3009 142.405 2.17089 142.52 2.06119C142.636 1.95372 142.775 1.8697 142.927 1.81441C143.08 1.75913 143.244 1.73376 143.408 1.73992H147.878C148.042 1.73376 148.206 1.75913 148.359 1.81441C148.512 1.8697 148.651 1.95372 148.767 2.06119C148.881 2.17094 148.97 2.30098 149.028 2.4435C149.087 2.58602 149.114 2.73807 149.108 2.89048L149.103 16.8178ZM147.55 9.43345V3.01498H143.732V9.43446L147.55 9.43345Z" fill="white"/>
<path d="M148.022 18.5491H143.364C143.134 18.5549 142.906 18.5195 142.692 18.4452C142.478 18.3708 142.283 18.2589 142.119 18.1161C141.953 17.9724 141.822 17.7995 141.736 17.6083C141.649 17.4172 141.608 17.2119 141.615 17.0057V12.96H144.079V16.517H147.273V11.0733H143.261C143.033 11.08 142.806 11.0445 142.593 10.9691C142.381 10.8937 142.188 10.78 142.027 10.6351C141.868 10.4892 141.744 10.3161 141.662 10.1262C141.579 9.93628 141.54 9.73345 141.548 9.52985V2.70358C141.541 2.49999 141.579 2.29718 141.662 2.10728C141.744 1.91738 141.869 1.74429 142.027 1.59834C142.188 1.4534 142.381 1.33968 142.593 1.26429C142.806 1.1889 143.033 1.15345 143.261 1.16017H148.026C148.254 1.15364 148.481 1.18917 148.694 1.26455C148.906 1.33993 149.098 1.45355 149.26 1.59834C149.418 1.74444 149.542 1.91759 149.624 2.10747C149.707 2.29734 149.745 2.50007 149.738 2.70358V17.0057C149.745 17.209 149.706 17.4116 149.624 17.6013C149.542 17.791 149.418 17.9639 149.26 18.1099C149.098 18.2553 148.905 18.3694 148.692 18.4449C148.479 18.5205 148.251 18.556 148.022 18.5491ZM142.422 13.6817V17.0057C142.415 17.1151 142.435 17.2245 142.479 17.3265C142.524 17.4286 142.592 17.521 142.68 17.5975C142.771 17.6749 142.878 17.735 142.996 17.7744C143.113 17.8137 143.238 17.8314 143.364 17.8263H148.022C148.143 17.832 148.264 17.8151 148.378 17.7768C148.491 17.7385 148.594 17.6795 148.681 17.6036C148.765 17.5241 148.83 17.4301 148.873 17.3273C148.915 17.2245 148.934 17.1151 148.927 17.0057V2.70358C148.934 2.59398 148.916 2.48433 148.873 2.38134C148.831 2.27834 148.765 2.18417 148.681 2.10456C148.594 2.02866 148.491 1.96967 148.378 1.93133C148.264 1.89299 148.143 1.87615 148.022 1.88187H143.261C143.14 1.87595 143.019 1.8926 142.906 1.93076C142.793 1.96893 142.689 2.02776 142.603 2.10353C142.518 2.18304 142.452 2.27715 142.409 2.38013C142.367 2.48311 142.348 2.59281 142.354 2.70255V9.52882C142.347 9.63849 142.366 9.74816 142.409 9.85115C142.451 9.95414 142.517 10.0483 142.602 10.1278C142.688 10.2038 142.791 10.2628 142.905 10.3012C143.018 10.3395 143.139 10.3563 143.26 10.3505H148.082V17.2387H143.273V13.6817H142.422ZM148.08 9.78348H143.199V2.47057H148.08V9.78348ZM144.006 9.06178H147.273V3.19227H144.006V9.06178Z" fill="white"/>
</svg>
