<svg width="41" height="54" viewBox="0 0 41 54" fill="none" xmlns="http://www.w3.org/2000/svg">
<path d="M41 0H0V40H41V0Z" fill="#FF0000"/>
<path d="M16.2711 16.3216C16.0331 16.0931 15.7467 15.9144 15.4304 15.797C15.1141 15.6796 14.775 15.6261 14.4353 15.6401H6.25114L6.65587 5.67735H16.7183V3H3.49849L3.08481 18.3154H13.7801V34.329H6.20196V25.9689H3.00208V34.5919C2.98823 34.9121 3.04373 35.2316 3.1652 35.5309C3.28667 35.8303 3.47158 36.1033 3.70869 36.3334C3.95016 36.5563 4.23765 36.7303 4.5534 36.8446C4.86916 36.9589 5.20648 37.0111 5.54453 36.998H14.4375C14.7775 37.0114 15.1168 36.9582 15.4339 36.8419C15.751 36.7256 16.0389 36.5487 16.2796 36.3224C16.5202 36.0961 16.7083 35.8252 16.8319 35.527C16.9556 35.2288 17.0121 34.9096 16.9979 34.5898V18.0483C17.0101 17.7289 16.9519 17.4105 16.8268 17.1133C16.7017 16.8161 16.5125 16.5466 16.2711 16.3216Z" fill="white"/>
<path d="M14.5526 37.9871H5.41865C4.96305 38.0029 4.50889 37.9307 4.08486 37.775C3.66083 37.6194 3.27616 37.3837 2.95519 37.0828C2.63421 36.782 2.3839 36.4225 2.22009 36.0271C2.05628 35.6318 1.98252 35.2092 2.00349 34.786V25.3064H6.90003V33.7936H13.0758V19.0364H2.0701L2.5432 2H17.7013V6.21055H7.32721L6.97351 14.8259H14.5526C15.0076 14.8135 15.4605 14.8875 15.8838 15.0434C16.307 15.1992 16.6916 15.4336 17.014 15.7322C17.3364 16.0308 17.5899 16.3874 17.7591 16.7801C17.9282 17.1728 18.0093 17.5935 17.9976 18.0163V34.7966C18.015 35.2214 17.9378 35.6448 17.7708 36.0405C17.6039 36.4362 17.3507 36.7956 17.0273 37.0962C16.7039 37.3967 16.3171 37.6319 15.8912 37.7871C15.4654 37.9422 15.0096 38.0139 14.5526 37.9978V37.9871ZM3.61117 26.8002V34.7966C3.59739 35.0236 3.63392 35.2507 3.71846 35.464C3.803 35.6773 3.93377 35.8721 4.10266 36.0365C4.27592 36.1933 4.4824 36.3149 4.70896 36.3935C4.93552 36.4721 5.1772 36.5061 5.41865 36.4932H14.5526C14.7965 36.508 15.0409 36.4742 15.2696 36.3942C15.4984 36.3141 15.7061 36.1896 15.8789 36.0291C16.0517 35.8685 16.1857 35.6755 16.2718 35.4629C16.3579 35.2504 16.3943 35.0233 16.3784 34.7966V18.0163C16.3903 17.7907 16.3512 17.5653 16.2636 17.3546C16.176 17.1439 16.0418 16.9525 15.8698 16.7929C15.6978 16.6333 15.4917 16.5089 15.2649 16.4278C15.038 16.3466 14.7954 16.3106 14.5526 16.3219H5.30842L5.78612 4.71669H16.1005V3.49386H4.10956L3.7191 17.5425H14.6835V35.2875H5.29235V26.8002H3.61117Z" fill="white"/>
<path d="M36.9894 34.586C37.0025 34.9052 36.9482 35.2238 36.8299 35.5223C36.7116 35.8209 36.5317 36.0933 36.301 36.3231C36.0665 36.5486 35.7861 36.725 35.4773 36.8412C35.1686 36.9573 34.8382 37.0108 34.507 36.9982H25.6808C25.3449 37.0088 25.0102 36.9546 24.6964 36.8386C24.3826 36.7227 24.0962 36.5474 23.854 36.3231C23.6144 36.098 23.4262 35.8272 23.3017 35.5281C23.1771 35.2289 23.1189 34.908 23.1307 34.586V27.0695H26.2687V34.3252H33.8514V21.7488H25.4864C25.1553 21.7616 24.825 21.7085 24.5162 21.5927C24.2075 21.4769 23.927 21.3009 23.6923 21.0758C23.4614 20.846 23.2813 20.5736 23.1626 20.2751C23.0439 19.9766 22.9892 19.658 23.0018 19.3386V5.41202C22.9892 5.09262 23.0439 4.77407 23.1626 4.47554C23.2813 4.17701 23.4614 3.90466 23.6923 3.67488C23.927 3.44975 24.2075 3.27375 24.5162 3.15794C24.825 3.04213 25.1553 2.989 25.4864 3.00189H34.5157C34.8468 2.989 35.1771 3.04213 35.4858 3.15794C35.7945 3.27375 36.0751 3.44975 36.3098 3.67488C36.5403 3.90476 36.7202 4.17718 36.8385 4.47572C36.9568 4.77426 37.0111 5.09275 36.9981 5.41202L36.9894 34.586ZM33.8514 19.1178V5.6728H26.1419V19.1199L33.8514 19.1178Z" fill="white"/>
<path d="M34.6472 37.9983H25.5487C25.1007 38.0102 24.6547 37.9371 24.237 37.7832C23.8192 37.6292 23.4382 37.3976 23.1165 37.1019C22.7929 36.8046 22.5383 36.4466 22.3688 36.0508C22.1994 35.6551 22.1188 35.2302 22.1323 34.8033V26.4284H26.945V33.7916H33.1833V22.5227H25.3483C24.9024 22.5366 24.4583 22.4632 24.0437 22.3071C23.6291 22.151 23.2529 21.9156 22.9386 21.6156C22.6281 21.3135 22.3851 20.9552 22.2241 20.5621C22.0631 20.169 21.9875 19.7491 22.0017 19.3277V5.19666C21.9876 4.77521 22.0633 4.35538 22.2243 3.96228C22.3852 3.56917 22.6282 3.21085 22.9386 2.90873C23.2529 2.60869 23.6291 2.37328 24.0437 2.21721C24.4583 2.06115 24.9024 1.98777 25.3483 2.00166H34.6539C35.0998 1.98815 35.5438 2.06171 35.9584 2.21775C36.3729 2.3738 36.7492 2.609 37.0637 2.90873C37.3735 3.21117 37.6159 3.5696 37.7764 3.96266C37.937 4.35572 38.0125 4.77539 37.9983 5.19666V34.8033C38.0123 35.2242 37.9367 35.6435 37.7761 36.0362C37.6156 36.4289 37.3733 36.7869 37.0637 37.0891C36.7486 37.3901 36.3714 37.6262 35.9556 37.7827C35.5398 37.9391 35.0943 38.0125 34.6472 37.9983ZM23.7088 27.9224V34.8033C23.6959 35.0297 23.7343 35.2562 23.8213 35.4675C23.9083 35.6787 24.0419 35.87 24.2132 36.0283C24.3906 36.1886 24.6004 36.3131 24.8299 36.3945C25.0594 36.476 25.3039 36.5126 25.5487 36.5021H34.6472C34.8836 36.5138 35.1199 36.4789 35.3412 36.3996C35.5626 36.3202 35.7642 36.1982 35.9331 36.0411C36.0978 35.8765 36.2254 35.6819 36.3083 35.4691C36.3911 35.2563 36.4275 35.0298 36.4151 34.8033V5.19666C36.4279 4.96978 36.3918 4.7428 36.309 4.5296C36.2261 4.31639 36.0982 4.12144 35.9331 3.95665C35.7642 3.79952 35.5627 3.6774 35.3413 3.59804C35.1199 3.51868 34.8836 3.48381 34.6472 3.49565H25.3483C25.1121 3.4834 24.8758 3.51787 24.6544 3.59687C24.433 3.67587 24.2314 3.79767 24.0624 3.95452C23.8967 4.11909 23.7682 4.31391 23.6845 4.52709C23.6009 4.74028 23.5639 4.96737 23.5759 5.19453V19.3255C23.5635 19.5526 23.6 19.7796 23.6833 19.9928C23.7665 20.206 23.8948 20.4009 24.0601 20.5655C24.2289 20.7228 24.4305 20.845 24.6519 20.9243C24.8733 21.0037 25.1097 21.0385 25.346 21.0265H34.7643V35.2856H25.3708V27.9224H23.7088ZM34.7598 19.8527H25.2267V4.71432H34.7598V19.8527ZM26.8031 18.3587H33.1833V6.20831H26.8031V18.3587Z" fill="white"/>
<path d="M5 54H3.82839L1.06435 48.7143V54H0V43H1.06435V47.9411L3.57562 43H4.73186V43.0627L2.02145 48.2989L5 54Z" fill="white"/>
<path d="M7 54H6V43H7V54Z" fill="white"/>
<path d="M14 43.8647H12.0642V54H10.9522V43.8647H9V43H14V43.8647Z" fill="white"/>
<path d="M21 53.2188C21 53.4487 20.898 53.6359 20.694 53.7806C20.49 53.9252 20.2317 53.9983 19.9191 54H16.0639C15.7509 54 15.4959 53.9269 15.2987 53.7806C15.1016 53.6343 15.002 53.447 15 53.2188V43.7815C15 43.5516 15.0996 43.3643 15.2987 43.2194C15.4979 43.0746 15.7529 43.0015 16.0639 43H19.9191C20.232 43 20.4903 43.0731 20.694 43.2194C20.8977 43.3657 20.9997 43.5531 21 43.7815V46.3395H19.6609V43.8658H16.3323V53.1345H19.6609V50.4292H21V53.2188Z" fill="white"/>
<path d="M27.9983 54H26.9375V48.7143H24.0622V54H23V43H24.0622V47.8358H26.9392V43H28L27.9983 54Z" fill="white"/>
<path d="M34 54H30V43H33.9531V43.8647H31.0818V47.9693H33.6966V48.8472H31.0818V53.1353H34V54Z" fill="white"/>
<path d="M39.9828 43V50.9502L36.8078 43H36V54H37.0169V45.9115L40.2541 54H41V43H39.9828Z" fill="white"/>
</svg>
